<svg version="1.1" xmlns="http://www.w3.org/2000/svg" viewBox="0 0 937 566.0914002881944" width="937" height="566.0914002881944">
  <!-- svg-source:excalidraw -->
  
  <defs>
    <style class="style-fonts">
      @font-face {
        font-family: "Virgil";
        src: url("https://excalidraw.com/Virgil.woff2");
      }
      @font-face {
        font-family: "Cascadia";
        src: url("https://excalidraw.com/Cascadia.woff2");
      }
    </style>
  </defs>
  <rect x="0" y="0" width="937" height="566.0914002881944" fill="#ffffff"></rect><g stroke-linecap="round"><g stroke-opacity="0.4" fill-opacity="0.4" transform="translate(167 11.091400288194393) rotate(0 1.292476227878069 246.41594273626805)"><path d="M-0.7 0.89 C-1.03 82.76, -1.43 412.09, -1.73 493.92 M4.11 -1.09 C4.67 81.1, 3.92 406.83, 3.74 489.41" stroke="#000000" stroke-width="4" fill="none"></path></g></g><mask></mask><g stroke-linecap="round"><g stroke-opacity="0.4" fill-opacity="0.4" transform="translate(147 471.09140028819445) rotate(0 386.191355278343 0.2094373485811616)"><path d="M-1.9 2.08 C127.06 1.67, 645 -1.76, 774.28 -1.65 M2.26 0.73 C130.93 0.58, 644.38 1.42, 772.74 1.08" stroke="#000000" stroke-width="4" fill="none"></path></g></g><mask></mask><g stroke-opacity="0.5" fill-opacity="0.5" stroke-linecap="round" transform="translate(146 375.09140028819445) rotate(0 388 40.5)"><path d="M0 0 C0 0, 0 0, 0 0 M0 0 C0 0, 0 0, 0 0 M-0.74 6.67 C2.17 3.43, 3.74 1.13, 4.54 0.04 M-0.63 6.55 C1.33 4.38, 3.19 2.45, 4.87 0.12 M-0.81 12.72 C2.89 7.02, 7.65 1.06, 11.41 -0.43 M0.44 12.69 C2.86 8.83, 4.41 5.66, 10.07 0.45 M0.79 18.39 C4.65 10.98, 9.46 7.61, 16.64 0.71 M-1.07 17.65 C5.9 12.05, 12.22 6.07, 16.09 1.09 M0.59 22.69 C7.63 15.74, 17.91 6.38, 20.4 1.19 M-0.65 23.6 C8.37 15.69, 15.62 6.24, 21.8 -0.94 M0.7 31.68 C9.56 19.19, 18.32 8.8, 26.01 -0.25 M0.74 30.25 C5.93 22.96, 11.88 16.9, 26.41 1.29 M-1.27 37.91 C5.94 28.31, 12.24 22.49, 32.34 -0.78 M-1.09 37.39 C12.41 21.41, 25.37 7.58, 31.88 -0.01 M-1.56 43.92 C15.16 28.13, 28.09 9.15, 37.73 1.58 M1.14 41.76 C11.75 29.56, 22.3 16.23, 36.03 -0.68 M0.67 49.67 C9.67 36.36, 22.99 23.28, 42.01 -0.91 M0.73 49.77 C10.83 35.31, 22.42 22.57, 42.37 -0.26 M0.82 56.38 C15.56 34.78, 31.59 16, 46.21 1.38 M0.2 54.66 C15.8 36.59, 32.23 17.05, 47.44 0.49 M0.43 61.67 C13.3 47.13, 23.5 30.92, 54.66 -1.36 M0.55 60.95 C17.61 40.93, 34.79 20.49, 52.61 0.02 M0.71 67.41 C22.62 44.93, 42.65 20.88, 58.57 0.66 M0.48 67.58 C12.82 51.45, 27.02 37.07, 57.34 0.45 M1.37 71.15 C22.35 48.91, 44.09 19.72, 62.24 0.03 M0.92 72.68 C21.06 49.89, 41.85 27.01, 63.09 -0.07 M-0.38 77.42 C27.17 52.22, 52.31 22.05, 70.61 -0.77 M-0.33 80.2 C26.47 49.7, 51.09 21.33, 68.55 -0.82 M1.5 83.41 C26.36 54.31, 49.6 25.91, 75.41 1.74 M2.51 82.83 C21.91 59.78, 41.77 36.23, 73.48 -0.15 M6.99 85.08 C32.65 51.64, 59.45 24.33, 78.79 -0.79 M7.87 83.5 C30.37 55.39, 52.98 29.15, 80.05 1.02 M12.12 80.8 C29.37 62.04, 44.59 44.36, 83.47 -1.46 M12.74 82.3 C29.47 64.17, 46.87 44.32, 84.59 -0.43 M16.48 81.45 C36.32 58.86, 59.63 37.62, 88.31 1.04 M17.82 83.9 C44.26 50.81, 71.97 20.03, 90.98 0.66 M22.11 81.29 C37.28 67.25, 53.18 46.25, 94.46 1.52 M24.09 81.72 C42.91 60.66, 59.65 40.05, 96.39 0.16 M29.07 81.13 C56.26 54.67, 78.79 25.05, 101.01 -0.53 M28.09 82.4 C52.58 54.51, 77.17 27.36, 100.64 -0.89 M33.59 83.4 C59.29 52.8, 83.76 26.94, 107.07 -1.89 M33.75 82.22 C53.69 59.7, 73.15 37, 106 0.09 M39.7 83.31 C64.99 52.63, 90.36 21.82, 111.44 -0.43 M39.68 83.57 C65.65 52.66, 91.49 20.81, 110.49 -0.26 M45.35 83.94 C60.74 62.16, 75.74 44.74, 118.04 0.76 M45.03 83.31 C60.8 64.91, 75.32 46.18, 117.05 -0.11 M50.02 83.43 C75.29 50.99, 101.54 19.95, 122.83 0.72 M50.75 83.31 C76.99 51.91, 102.87 23.58, 122.13 0.27 M56.87 82.03 C82.3 53.1, 108.28 21.88, 128.75 0.01 M55.43 82.82 C75.39 58.35, 96.56 34.17, 126.29 1.19 M60.35 81.29 C90.15 49.93, 116.93 18.1, 131.11 0.59 M60.6 82.9 C85.83 56.42, 109.67 28.22, 133.34 0.73 M64.33 83.12 C82.22 65.72, 93.83 46.97, 137.31 0.95 M66.58 82.92 C86.78 60.05, 107.75 35.19, 137.66 1.21 M69.71 80.98 C92.35 56.67, 113.56 35.24, 144.88 -0.8 M71.72 82.93 C88.72 62.45, 105.79 43.81, 144.02 -0.45 M76.58 82.95 C94.03 63.12, 114.1 41.61, 149.18 0.24 M76.28 82.14 C95.11 60.92, 112.53 39.88, 148.9 -0.22 M79.81 82.9 C105.67 54.05, 129.5 25.48, 153.44 -1.15 M81.71 83.34 C109.65 51.46, 135.75 19.91, 154.27 -0.55 M87.18 83.59 C115.16 50.05, 143.79 15.33, 160.49 -1.15 M86.48 83.34 C108.45 59.43, 129.93 34.6, 158.93 0.06 M91.02 83.78 C108.85 63.7, 125.56 44.23, 162.78 0.17 M91.37 83.42 C119.32 52.29, 145.72 21.68, 164.31 -0.48 M97.69 82.16 C124.56 50.84, 155.32 17.92, 170.07 2.06 M96.65 82.5 C119.5 58.02, 140.98 32.08, 169.81 0.56 M102.43 84.65 C121.41 60.81, 141.8 39.34, 175.55 -1.89 M102.64 83.81 C130.98 51.5, 157.99 20.65, 174.55 -0.81 M108.35 83.85 C132.11 55.07, 155.81 29.35, 179.44 -0.53 M108.35 83.65 C127.56 62.57, 146.09 41.38, 180.75 1.12 M111.81 82.86 C138.9 52.55, 168.55 20.56, 187.13 -2.1 M112.6 82.48 C134.1 58.91, 156.89 34.69, 185.51 0.23 M118.11 82.42 C133.42 68.45, 150.89 49.72, 188.81 0.98 M119.35 83.45 C140.67 54.91, 164.97 28.39, 190.13 0.95 M123.59 84.05 C146.26 61.38, 166.23 38.26, 197.56 -0.88 M123.51 82.76 C148.94 54.46, 174.7 26.99, 195.92 -1.24 M127.27 81.17 C155.17 54.21, 181.78 24.79, 201.04 0.81 M128.24 82.14 C153.82 56.51, 176.66 28.2, 201.49 0.59 M132.94 82.2 C159.64 55.08, 184.89 22.98, 207.57 -0.36 M134.78 83.29 C155.89 57.06, 177.19 33.37, 206.62 -0.76 M140.81 81.73 C169.9 48.96, 196.16 16.47, 213.74 1.5 M139.75 82.31 C162.11 54.85, 186.26 27.46, 211.51 -0.1 M145.66 83.6 C168.72 54.26, 191.95 28.61, 218.58 -0.35 M144.96 82.1 C163.12 61.18, 181.07 42.48, 216.64 0.48 M152.41 84.05 C169.79 58.95, 190.15 36.14, 223.15 1.89 M150.76 82.88 C165.54 65.33, 180.79 47.47, 222.04 0.13 M154.28 82.83 C173.48 65.68, 186.68 47.33, 228.7 -2.35 M155.78 82.54 C172.8 63.04, 189.29 45.15, 229.15 -0.38 M160.42 82.37 C183.41 57.89, 205.01 34.41, 232.24 1.14 M160.32 83.13 C183.97 58.21, 207.5 31.36, 234.08 -0.16 M166 82.81 C179.41 67.83, 195.29 47.27, 240.07 -0.79 M166.12 83.29 C181.54 65.48, 197.4 49.42, 238.81 0.91 M171.88 81.25 C202.69 50.18, 230.87 18.19, 242.64 -1.28 M171.65 82.67 C199 51.08, 225.54 19.52, 243.77 0.94 M178.7 82.75 C201.04 57.06, 222.06 31.33, 249.48 1.94 M177.99 82.39 C196.77 59.83, 216.78 35.29, 248.43 0.67 M182.54 83.57 C203.94 59.68, 223.68 35.5, 254.68 -1.6 M182.09 83.47 C197.53 67.38, 210.86 50.35, 254.45 0.69 M188.98 82.19 C214.85 53.63, 241.7 23.92, 260.46 0.04 M188.6 83.24 C207.43 57.9, 229.93 34.56, 258.99 -0.16 M192.8 82.52 C220 51.39, 249.6 18.05, 263.37 0.29 M193.17 83.83 C209.13 65.38, 224.84 47.41, 264.57 -0.31 M200.08 80.97 C211.94 62.97, 226.76 47.15, 269.86 1.26 M198.29 82.55 C212.95 66.37, 226.58 49.68, 270.3 0.95 M203.79 81.6 C219.82 63.59, 233.04 46.25, 274.42 0.79 M202.56 82.39 C222.41 59, 244.09 35.88, 275.76 -0.11 M209.3 84 C231.36 59.59, 252 31.36, 279.22 -0.34 M207.9 83.15 C232.26 57.01, 255.08 29.45, 280.29 0.85 M213.29 82.63 C229.62 63.09, 247.8 47.04, 288.21 0.63 M214.08 82.16 C235.97 58.24, 256.69 35.15, 286.8 0.58 M218.61 82.24 C242.55 54.16, 267.87 26.22, 290.77 -0.38 M219.39 82.95 C239.69 59.8, 259.94 37.4, 291.09 0.76 M223.79 81.73 C250.28 54.2, 277.36 23.07, 295.83 0.82 M225.73 82.46 C252.18 52.92, 278.44 21.97, 297.63 0.38 M230.66 81.24 C258.32 49.05, 284.52 20.27, 303.45 -0.17 M229.94 83.45 C248.87 61.48, 266.84 40.04, 302.95 0.23 M234.46 81.33 C256.69 58.51, 280.68 31.86, 307.03 -1.27 M235.63 82.97 C256.25 58.11, 278.51 33.71, 307.35 -0.72 M239.48 82.08 C268.47 55.18, 293.62 24.04, 312.86 1.28 M240.5 82.76 C266.89 53.7, 293.1 23.42, 312.31 -0.83 M245.16 82.19 C265.54 58.97, 285.74 35.53, 318.27 -0.01 M246.1 83.71 C264.88 60.68, 284 38.47, 318.21 0.6 M249.76 82.17 C278.07 49.28, 307.69 17.97, 323.29 -0.71 M251.2 82.32 C267.29 65.2, 283.85 46.31, 323.73 -0.19 M256.43 83.38 C281.31 53.78, 304.23 24.38, 328.7 -1.4 M257.57 83.06 C277.4 57.35, 299.61 32.96, 329.61 -1.01 M260.89 83.24 C280.18 63.22, 293.49 47.57, 335.72 -0.5 M261.32 82.92 C278.61 64.09, 295.23 44.88, 333.96 0.73 M265.51 82.27 C292.54 54.33, 317.38 27.6, 340.13 0.82 M266.67 81.73 C286.33 57.79, 308.35 35.56, 340.11 0.46 M270.96 83.3 C300.48 49.2, 327.26 16.95, 343.84 1.82 M273.31 82.69 C293.49 58.98, 314.87 33.49, 343.89 0.87 M278.32 82.54 C307.2 50.05, 334.33 16.44, 348.42 2.01 M278.16 82.76 C301.11 57.45, 323.79 32.23, 348.78 1.13 M284.73 84.72 C302.21 58.13, 323.34 37.24, 353.99 0.53 M282.75 83.11 C300.86 62.59, 318.98 43.03, 354.55 -0.49 M289.47 82.2 C316.73 52.41, 342.03 20.92, 362.09 -0.44 M288.96 83.56 C312.72 56.89, 334.74 32.11, 359.81 0.17 M293.64 82.14 C312.67 60.6, 331.42 36.99, 365.22 0.17 M294.39 83 C312.82 59.11, 334.04 37.1, 365.17 0.25 M298.25 81.57 C315.45 61.16, 335.83 40.59, 370.38 1.46 M300.15 81.86 C319.23 59.74, 338 38.18, 370.57 0.38 M303.84 82.54 C330.15 54.07, 358.42 21.47, 377.26 -0.37 M304.15 82.53 C324.63 59.17, 345.54 34.8, 377.09 -0.94 M308.64 83.26 C332.37 55.78, 350.65 34.49, 381.86 -0.78 M308.96 81.76 C337.47 51.93, 365.07 19.24, 382.25 1.14 M316.16 81.2 C343.34 50.2, 370.4 19.5, 386.55 0.1 M315.09 83.19 C338.97 54.37, 363.07 26.05, 387.83 0.23 M320.67 84.97 C345.6 57.43, 366.02 28.95, 391.79 0.7 M320.14 82.43 C341.6 58.86, 363.54 34.85, 391.19 1.18 M326.11 81.71 C349.61 53.68, 375.61 21.01, 398.18 1.07 M325.42 83.84 C339.7 64.11, 355.24 47.61, 397.07 0.43 M329 84.45 C345.77 64.48, 363.6 44.81, 402.12 2.05 M330.53 83.15 C351.04 59.93, 372.01 36.1, 402.9 0.56 M335.89 83.98 C360.8 53.4, 383.93 24.8, 409.95 0.36 M336.52 82.68 C352.92 64.76, 366.48 47.85, 408.63 0.64 M343.02 84 C361.14 60.3, 380.07 38.98, 413.51 -0.25 M341.19 83.77 C359.22 62.07, 376.54 41.98, 414.03 0.71 M346.4 84.23 C373.33 50.4, 400.93 18.6, 420.34 -1.9 M346.92 83.24 C376.28 51.03, 404.57 16.55, 418.5 0.2 M353.46 83.52 C377.48 51.53, 402.9 21.47, 425.27 -1.43 M351.98 83.77 C374.72 56.07, 398.02 29.18, 424.39 0.38 M357.2 82.99 C382.03 51.97, 411.3 21.62, 428.53 0.71 M358.31 82.41 C382.83 53.31, 408.11 24.79, 428.81 -1.22 M363.75 81.17 C392.02 52.03, 418.93 18.52, 435.41 -0.39 M362.9 82.95 C385.61 58.03, 407.43 31.06, 434.96 -0.34 M366.57 81.11 C380.9 67.01, 398.02 47.43, 438.37 0.97 M367.54 82.4 C397.33 49.08, 425.4 16.8, 439.88 0.41 M374 81.48 C395.25 56.8, 422.62 25.91, 444.65 0.28 M372.15 83.45 C388.07 65.83, 401.78 48.29, 445.85 0.01 M379.45 83.74 C407.14 50.8, 437.68 14.86, 450.41 -2.08 M378.6 82.81 C406.63 50.04, 434.22 18.68, 450.14 -0.54 M384.99 83.24 C401.93 58.33, 423 37.32, 456.36 -1.71 M384.04 83.76 C403.38 60.28, 421.08 40.02, 456.36 0.22 M387.49 84.35 C407.2 61.3, 428.69 37.74, 461.88 0.94 M388.66 82.52 C411.27 57.38, 434.77 31.85, 462.22 -1.37 M394.22 83.59 C409.58 65.45, 427.84 43.74, 464.64 -0.31 M395.05 82.73 C419.96 53.81, 445.12 24.37, 466.91 0.4 M401.01 80.73 C424.4 54.41, 451.78 25.2, 470.05 -1.51 M400.01 81.81 C419.72 59.99, 439.64 37.52, 472.22 -0.26 M403.85 81.97 C425.67 56.44, 449.14 30.07, 478.23 -1.19 M405.84 83.52 C433.91 49.46, 462.83 16.23, 477.11 0.05 M409.03 82.98 C427.26 63.25, 444.66 42.38, 482.84 -0.96 M410.14 82.28 C435.52 53.51, 461.29 23.49, 482.37 0.67 M416.75 84.12 C444.38 51.97, 471.11 17.16, 488.6 -1.69 M415.19 83.67 C440.34 53.58, 465.62 25.94, 487.7 -0.02 M419.25 81.49 C439.53 60.07, 456.15 41, 490.89 -0.34 M421.68 82.86 C445.03 54.41, 470.44 25.89, 493.09 -0.08 M424.45 82.1 C453.79 51.31, 482.22 20.89, 497.88 1.16 M426.06 83.04 C452.78 52.01, 479.27 20.84, 498.59 0.36 M430.06 82.98 C446.12 63.36, 464.58 44.84, 502.18 -1.01 M432.39 81.85 C456.77 53.81, 483.09 22.77, 503.63 -0.42 M435.2 82.3 C465.56 48.33, 492.86 16.1, 510.91 -1.36 M437.57 83.85 C458.25 57.28, 481.64 30.36, 508.85 0.68 M441.88 83.25 C465.62 55.97, 493.97 25.63, 513.38 1.97 M442.56 83.64 C459.8 61.91, 477.95 39.92, 513.38 0.07 M445.91 81.41 C474.16 49.53, 504.11 15.31, 519.19 -1.65 M446.97 82.63 C463.2 67.74, 477.93 49.29, 518.68 -0.19 M451.78 84.13 C466.79 64.61, 485.92 45.87, 525.85 -0.17 M451.61 83.69 C470.22 63.29, 487.15 45.56, 523.87 0.17 M458.19 82.42 C479.89 60.64, 498.82 35.26, 528.92 0.2 M457.69 82.3 C481.21 55.24, 506.4 27.41, 529.48 -0.06 M461.57 82.04 C485.1 55.84, 510.05 29.76, 533.64 -1.85 M462.11 83.07 C480.4 65.22, 495.67 46.88, 534.82 0.99 M470.33 82.64 C493.03 58.48, 514.6 31.58, 541.01 0.4 M469.3 82.09 C485.44 62.41, 502.63 43.91, 541.76 0.61 M472.39 84.93 C492.99 60.8, 510.19 41.3, 547.47 0.8 M474.49 83.45 C494.21 58.3, 514.41 34.5, 546.08 0 M477.33 81.71 C504.94 52.02, 531.61 21.64, 551.02 -0.52 M479.55 83.6 C496.8 61.89, 515.16 41.67, 551.22 0.69 M484.05 81.1 C507.06 57.01, 532.74 29.8, 554.78 1.97 M484.3 83.84 C502.01 62.75, 518.6 43.7, 555.67 0.99 M490.85 81.57 C515.44 55.99, 538.37 25.58, 561.21 -1.7 M490.32 82.74 C516.34 50.72, 543.29 21.35, 562.71 0.42 M495.08 83.14 C523.59 49.13, 554.08 17.62, 567.67 -1.83 M494.27 82.59 C521.76 51.61, 548.67 21.23, 567.76 0.13 M499.25 82.45 C527.02 52.23, 554.86 22.47, 572.55 -1.99 M499.67 81.79 C517.57 62.43, 533.4 45.46, 572.21 -0.64 M506.67 83.95 C533.36 52.24, 560.19 18.23, 578.93 0.19 M506.26 83.38 C534.77 50.18, 561.31 18.34, 578.69 -0.11 M511.57 82.93 C535.02 52.41, 559.17 27.06, 584.01 0.83 M511.79 83.38 C530.28 59.88, 549.15 37.74, 582.24 1.18 M514.72 84.75 C543.13 52.22, 570.59 20, 590.05 1.18 M515.31 83.27 C536.47 60.65, 556.5 38.44, 588.93 -0.89 M521.56 83.89 C540.72 61.65, 558.38 39.11, 595.24 -0.96 M521.04 82.45 C536.7 66.31, 551.04 48.23, 592.42 0.64 M525.81 83.09 C549.09 57.94, 570.93 31.62, 599.2 0.57 M527.61 82.64 C552.81 52.97, 577.85 23.93, 599.13 -1.02 M531.62 84.5 C548.16 62.04, 567.87 44.71, 602.59 -0.52 M531.94 82.32 C556.67 53.3, 581.1 24.53, 603.56 0.08 M537.19 84.8 C561.04 53.09, 590.04 24.66, 609.24 0.11 M536.51 83.2 C560.7 55.59, 584.91 27.94, 610.08 -0.99 M544.88 82.28 C563.53 59.97, 585.39 34.89, 613.77 0.57 M543.17 82.62 C563.24 59.61, 581.06 39.23, 614.28 0.45 M548.83 84.03 C563.81 62.4, 582.02 41.68, 619.71 -0.14 M548.49 82.03 C575 50.43, 602.74 19.77, 620.74 -0.92 M552.46 81.78 C581.8 49.16, 609.65 20.67, 627.15 1.02 M552.89 84.12 C577.28 54.27, 603.31 25.26, 624.38 0.05 M559.35 83.27 C586.36 53.31, 611.55 22.81, 630.85 -1.8 M559.23 83.55 C575.98 63.32, 593.19 44.21, 630.22 -0.61 M564.16 83.64 C591.64 52.24, 616.29 23.81, 635.83 -0.14 M563.4 83.63 C580.91 62.8, 599 42.94, 636.78 0.49 M570.09 81.29 C591.78 55.84, 614.83 29.89, 639.57 -0.18 M569.52 83.5 C597.27 50.28, 625.49 18.33, 641.79 0.5 M572.51 85.03 C603.74 49.64, 632.36 18.97, 647.57 0.44 M575.19 82.59 C602.21 50.79, 630.89 19.84, 645.58 0.77 M581.07 81.18 C600.02 56.96, 623.33 36.61, 651.5 -0.29 M579.35 83 C597.63 63.16, 614.09 42.46, 652.86 -0.7 M583.35 84.71 C612.97 50.52, 642.38 19.34, 656.82 -1.58 M585.56 84.01 C607.2 58.04, 628.86 33.1, 658.03 -0.81 M590.97 82.35 C614.09 56.73, 636.29 31.05, 660.91 -0.79 M589.84 82.48 C615.36 55.91, 637.83 27.9, 663.01 -0.96 M595.23 83.75 C622.43 52.09, 645.42 26.57, 668.71 1.76 M595.95 83.28 C616.69 57.21, 640.76 32.45, 668.54 -0.58 M601.2 84.53 C619.45 62.58, 636.08 41.96, 674.8 -2.09 M601.26 81.74 C625 54.81, 648.35 29.1, 673.99 -0.7 M607.39 81.52 C633.16 50.12, 660.86 21.29, 679.08 -1.24 M605.99 82.09 C634.25 50.27, 661.85 18.29, 678.67 0.48 M611.84 83.75 C634.27 54.32, 657.8 29.97, 684.84 -2.22 M611.06 81.9 C630.24 61.56, 649.54 41.18, 683.67 0.01 M615.75 83.7 C638.54 56.24, 665.88 29.58, 690.44 2 M617.42 82.51 C640.72 54.74, 665.67 27.33, 689.14 0.7 M621.63 84.35 C635.64 63.23, 651.28 45.7, 695.38 -0.95 M621.83 83.45 C641.16 62.26, 658.39 41.53, 694.12 -0.55 M628.91 82.31 C653.99 54.59, 676.5 25.84, 699.99 0.38 M628.19 82.92 C655.47 51.34, 682.66 20.39, 699.83 -0.21 M632.05 82.98 C649.64 67.1, 665.63 49.32, 702.82 1.05 M633.33 82.2 C662.52 48.85, 690.6 16.09, 704.87 0.99 M636.18 83.65 C659.96 57.16, 683.22 29.91, 711.62 -0.86 M638.36 82.08 C652.91 65.24, 668.47 48.73, 709.76 0.78 M643.22 80.62 C659.14 64.64, 673.42 47.37, 714.19 -0.86 M644.45 83.31 C665.08 57.93, 686.05 32.17, 715.59 0.07 M647.53 84.35 C665.17 66.82, 679.16 48.93, 719.91 -0.2 M648.17 83.06 C670.53 57.05, 693.06 32.76, 721.13 0.06 M653.98 82.55 C681.09 53.59, 702.39 26.06, 727.28 1.27 M655.26 83.31 C676.21 56.04, 700.31 30.17, 726.16 0.76 M657.63 83.34 C681.32 54.72, 705.22 26.1, 730.12 0.21 M660.01 83.3 C675.32 63.9, 691.18 44.6, 731.28 -0.65 M665.84 82.36 C690.21 56.61, 712.67 30.02, 737.17 0.94 M664.99 82.02 C687.25 56.23, 710.75 30.13, 737.24 0.7 M669.85 81.89 C690.63 58.75, 713.41 34.19, 742.21 -1.48 M670.43 82.57 C694.34 54.06, 720.88 27.18, 742.71 -0.28 M674.34 82.72 C696.53 57.63, 719.65 32.67, 747.68 1.95 M675.34 83.41 C698.38 54.24, 722.44 26.43, 747.65 -0.11 M680.24 83.54 C696.45 64.46, 712.09 44.81, 750.81 1.21 M680.13 82.99 C698.61 61.14, 717.92 39.41, 753.08 -0.41 M683.69 84.33 C704.3 62.26, 725.11 39.07, 759.27 -1.56 M685.17 82.5 C708.41 58.69, 730.68 33.55, 758.39 0.65 M689.51 82.19 C717.03 49.73, 746.86 18.34, 765.26 -0.95 M691.97 83.01 C707.42 63.93, 725.1 45.66, 763.19 0.71 M694.81 82.49 C725.04 52.11, 752.28 21.6, 769.14 -1.15 M696.5 83.94 C718.88 57.23, 740.85 30.1, 768.59 -0.32 M703.1 82.01 C724.45 57.17, 745.77 30.64, 773.56 -0.85 M700.97 83.45 C725.34 55.32, 747.56 29.19, 773.03 0.18 M707.96 84.04 C725.65 62.61, 739.1 45.64, 777.81 3.43 M707.18 82.94 C733.54 51.11, 762.09 19.57, 778.25 1.5 M711.11 81.51 C732.31 60.76, 753.99 37.88, 779.87 8.45 M712.31 83.44 C728.17 63.16, 744.64 45.4, 777.15 8 M718.09 84.13 C733.65 66.3, 747.32 49.77, 775.96 14.31 M718.22 84.07 C734.29 62.67, 752.24 45.01, 776.93 14.54 M724.34 81.49 C741.36 59.95, 763.13 37.31, 779.52 20.41 M723.3 82.48 C741.65 60.5, 760.67 36.98, 777.8 19.69 M726.85 82.23 C738.79 69.88, 749.25 56.18, 776.02 24.29 M727.76 83.26 C742.34 67.26, 756.06 52.53, 777.45 25.94 M734.27 81.1 C748.46 65.23, 767.51 47.02, 777.86 33.03 M733.43 82.41 C742.44 71.15, 753.67 59.49, 777.67 32.35 M738.56 82.14 C748.26 70.58, 756.65 61.71, 777.24 39.82 M739.12 83.76 C754.45 65.84, 769.13 48.42, 776.89 38.5 M745.08 81.76 C755 67.54, 769.84 52.9, 777 43.4 M744.36 83.4 C753.31 72.83, 762.64 63.02, 778.71 43.2 M748.24 83.93 C758.57 70.66, 767.73 63.23, 777.55 51.39 M748.77 82.16 C755.42 76.58, 760.58 70.68, 778.51 51.13 M753.62 83.23 C763.05 74.77, 768.73 66.93, 778.37 56.18 M755.86 81.98 C761.95 73.06, 770.24 65.2, 778.65 56.06 M761.58 84.03 C766.61 77.1, 772.96 67.41, 777.59 62.07 M760.33 82.42 C767.83 74.08, 774.53 66.84, 777.72 63.31 M765.45 83.47 C769.46 80.96, 771.39 77.05, 777.47 69.09 M765.87 82.97 C769.93 79.24, 772.69 75.02, 777.72 68.87 M770.83 83.04 C771.54 80.68, 775.24 77.22, 778.66 75.64 M770.61 83.41 C773.5 79.53, 775.66 77.17, 778.35 74.35" stroke="#868e96" stroke-width="0.5" fill="none"></path><path d="M-0.08 0.02 C265.01 0.36, 531 -0.13, 775.95 0.58 M0.2 0.24 C253.96 -1.6, 508.73 -1.4, 776.14 -0.02 M776.53 1.74 C775.15 20.96, 776.58 47.68, 776.98 79.66 M776.35 -0.02 C776.59 16.98, 777.02 33.08, 776.33 80.17 M775.53 81.17 C490.25 84.45, 204.93 84.41, 0.48 81.14 M776.37 80.83 C507.39 78.02, 238.62 77.87, 0.2 81.02 M0.94 79.73 C-0.06 58.26, 2.28 40.6, 0.33 1.39 M-0.96 80.46 C-0.46 51.89, 0.32 22.3, -0.32 0.29" stroke="#495057" stroke-width="1" fill="none"></path></g><g transform="translate(94 407.09140028819445) rotate(0 19 13)"><text x="0" y="18" font-family="Virgil, Segoe UI Emoji" font-size="20px" fill="#000000" text-anchor="start" style="white-space: pre;" direction="ltr">DIY</text></g><g stroke-opacity="0.5" fill-opacity="0.5" stroke-linecap="round" transform="translate(150 266.09140028819434) rotate(0 388 47.00000000000006)"><path d="M0 0 C0 0, 0 0, 0 0 M0 0 C0 0, 0 0, 0 0 M0.12 7.01 C2.1 4.41, 3.93 2.49, 4.43 0.08 M-0.43 6.65 C1.8 4.42, 3.7 1.67, 4.8 0.68 M0.99 10.65 C4.25 7.85, 8.03 4.68, 11.59 0.33 M0.04 11.83 C2.33 9.58, 5.63 6.27, 10.45 0.12 M0.2 20.43 C1.85 14.22, 7.36 8.83, 16.65 -0.35 M0.1 18.1 C5.19 13.39, 8.2 7.77, 16.13 0.19 M0.25 24.27 C6.46 17.63, 8.07 11.99, 22.66 0.57 M0.69 24.74 C8.39 14.56, 15.44 6.78, 20.5 0.14 M-1.7 28.6 C6.31 24.23, 15.56 15.71, 27 -0.89 M-0.25 30.09 C8.58 20.09, 16.84 10.6, 27.1 -0.41 M-0.56 36.62 C8.64 27.16, 17.46 19.63, 33.71 -1.3 M-0.9 37.46 C9.12 27.42, 16.49 16.97, 31.99 -0.61 M0.01 43.06 C11.27 29.97, 23.5 15.06, 37.58 1.23 M0.89 41.93 C12.6 28.27, 24.3 15.88, 36.86 0.21 M-1.21 49.31 C12.79 35.8, 21.92 23.26, 42.58 1.85 M0.09 49.16 C14.14 30.22, 29.79 14.27, 42.75 -0.88 M-1.32 55.08 C11.12 42.66, 19.76 32.95, 45.65 -0.1 M-0.5 54.68 C18.52 33.71, 35.89 14.88, 47.19 0.1 M-1.37 61.22 C18.53 41.51, 32.67 20.62, 51.18 1.75 M0.93 60.5 C21.04 36.38, 41.64 12.68, 53.95 0.68 M-0.69 65.41 C17.45 45.83, 34.86 26.86, 58.78 -0.3 M0.25 68.35 C16 49.67, 33.02 30.97, 58.19 0.45 M-1.71 73.19 C21.67 47.56, 43.01 25.52, 65.72 -1.17 M-0.16 72.54 C14.68 56.15, 28.95 40.29, 64.14 -0.4 M1.18 81.21 C13.53 62.87, 28.81 45.87, 66.82 -0.11 M-0.9 78.8 C14.54 61.6, 30.33 45.48, 68.33 -0.42 M-0.62 84.73 C25.49 56.17, 51.04 24.26, 72.75 -1.82 M-0.58 85.52 C18.22 64.44, 36.26 43.63, 75.21 -0.45 M1.92 92.59 C15.28 70.42, 35.43 49.81, 77.98 -1.57 M-0.59 92.36 C31.56 55.69, 63.49 19.95, 78.41 1.01 M3.16 96.52 C20.8 74.34, 36.74 56.59, 83.11 1.62 M1.9 95.28 C29.44 65.57, 56.06 33.15, 84.37 0.35 M7.33 93.3 C26.83 71.07, 47.15 49.6, 90.76 -0.05 M7.75 94.4 C28.21 69.74, 49.04 45.89, 89.58 -0.6 M11.75 96.41 C34.43 75.1, 51.06 51.11, 95.94 -0.38 M12.43 95.32 C37.26 69.25, 60.7 42.14, 96.2 -0.01 M15.74 95.35 C48.14 59.56, 81.88 23.77, 101.96 -0.22 M18.22 96.09 C35.47 75.72, 53.68 54.51, 101.33 0.55 M24.53 94.54 C51.68 67.12, 77.16 35.21, 106.73 -0.65 M23.44 95.87 C43.78 73.13, 63.45 51.48, 106.62 0.61 M28.4 96.43 C47.4 72.64, 64.2 53.52, 110.72 -0.07 M28.89 95.7 C57.1 62.63, 86.09 29.27, 111.5 -0.57 M32.38 97.16 C56.5 70.36, 73.95 47.78, 114.6 1.42 M32.89 95.79 C53 73.46, 71.03 52.49, 116.21 1.27 M40.17 97.41 C66.84 58.87, 100.62 23.05, 122.47 1.12 M38.49 96.15 C65.12 66.62, 91.22 37.74, 122.26 0.18 M44.48 97.24 C75.86 58.17, 110.31 19.42, 124.95 0.88 M45.09 95.08 C60.38 75.77, 78.08 56.32, 126.9 0.9 M50.92 95.07 C69.44 70.56, 91.16 46.18, 132.96 -1.28 M49.73 95.78 C81.47 57.46, 114.14 19.25, 132.15 0.07 M56.34 94.42 C74.52 74.72, 90.7 52.62, 137.54 -0.29 M54.69 94.89 C76.38 72.76, 96.36 49.78, 137.98 0.87 M60.78 94.9 C91.47 61.08, 117.32 28.68, 144.26 -1.19 M60.71 95.06 C85.21 67.15, 109.28 38.38, 144.02 -0.47 M65.77 95.01 C91.8 62.82, 122.09 30.39, 149.09 -0.17 M64.67 95.53 C92.9 64.04, 119.25 33.45, 148.73 -0.05 M70.24 95.07 C102.63 59.45, 132.22 27.32, 152.75 -1.83 M70.81 96.65 C98.92 62.85, 126.94 28.89, 153.09 0.17 M76.89 96.04 C100.62 68.64, 126.96 38.47, 160.62 -0.16 M76.38 94.48 C104.64 62.24, 130.95 29.94, 159.78 1.06 M80.07 94.45 C99.27 74.76, 117.16 54.5, 165.11 0.24 M80.81 95.34 C102.27 69.94, 124.8 45.73, 164.9 0.74 M88.15 97.21 C119.13 59.3, 147.76 19.7, 169.49 -0.94 M87.48 94.36 C111.92 65.01, 137.85 34.91, 169.12 -0.73 M91.38 96.57 C114.97 64.74, 140.84 35.61, 174.34 -0.84 M90.81 96.08 C124.41 57.66, 158.29 19.71, 175.37 -0.86 M96.29 96.9 C114.24 74.57, 130.65 54.85, 181.35 1.45 M98.01 94.95 C128.6 58.08, 158.41 22.07, 180.05 -0.17 M101.56 93.67 C122.78 71.03, 141.71 47.36, 183.75 -0.25 M102.24 95.98 C128.97 64.26, 155.01 32.87, 184.72 0.43 M108.38 96.2 C136.57 63.16, 164.74 30.79, 190.17 -0.31 M108.33 95.2 C139.07 60.51, 171.15 24.54, 191.26 0.13 M112.33 94.67 C135.77 72.06, 153.01 48.41, 194.98 1.54 M113.91 96.31 C130.98 76.87, 148.23 56.09, 195.55 -1.17 M117.79 94.87 C138.71 72.46, 159.02 52.41, 202.23 -0.86 M119.15 95.18 C141.27 68.49, 164.68 42.54, 200.73 -0.29 M121.74 97.18 C141.71 74.87, 158.28 55.09, 207.96 -1.28 M123.93 96.48 C144.79 71.64, 166.82 46.78, 206.79 -0.27 M128.21 95.36 C154.64 63.77, 183.13 31.65, 212.12 1.84 M129.52 94.17 C157.29 62.11, 186.84 29.21, 211.83 0.27 M136.12 95.49 C155.05 68.92, 177.23 45.7, 216.94 0.19 M133.79 96.09 C156.73 68.76, 178.65 42.21, 217.7 -0.36 M141 95.56 C167.09 61.88, 198.64 24.97, 222.77 -1.47 M140.19 95.3 C170.64 59.09, 204.12 22.05, 223.24 -0.32 M146.13 96.59 C171.54 63.47, 195.08 36.2, 226.49 1.52 M144.3 94.86 C168.94 68.26, 192.34 39.88, 227.91 0.27 M149.76 97.79 C171.02 70.55, 191.7 49.92, 233.37 0.63 M150.22 96.65 C175.63 67.15, 201.55 37.54, 233.02 -0.05 M154.75 96.15 C184.7 63.29, 215.47 29.03, 238.82 1.74 M155.63 94.69 C182.75 62.82, 211.77 29.63, 238.72 1.2 M160.48 97.33 C195.09 56.17, 225.36 20.67, 243.47 0.25 M161.02 95.69 C187.67 64.23, 215.27 32.25, 244.53 -0.75 M165.24 94.53 C184.42 76.73, 199.36 55.19, 248.43 0.27 M165.3 95.61 C188.93 67.8, 214.62 39.9, 249.74 0.93 M170.09 95.37 C198.35 60.99, 230.73 28.46, 252.92 -1.82 M171.03 96.28 C188.02 76.55, 205.72 56.76, 254.5 -0.08 M177.21 96.77 C203.11 64.73, 232.08 32.66, 258.18 1.53 M176.13 95.85 C195.23 75.29, 213.78 52.98, 258.97 -0.63 M181.84 95.81 C200.38 73.1, 217.96 53.17, 265.86 -0.1 M181.03 95.46 C213.93 60.1, 245.91 23.8, 265.02 0.43 M186.57 96.61 C217.82 58.41, 250.49 20.18, 269.87 -0.17 M188.35 95.75 C203.28 75.18, 220.54 56.28, 269.4 0.83 M193.3 97.22 C212.28 74.45, 229.93 49.65, 274.77 -0.41 M192.12 95.42 C210.04 74.49, 228.94 54.68, 275.48 -0.57 M197.53 96.47 C225.59 66.49, 248.81 33.83, 279.63 0.19 M197.47 95.83 C227.55 61.72, 255.27 29.06, 280.36 0.79 M204.33 96.86 C233.08 61.87, 261.31 31.06, 284.43 0.11 M203.78 95.51 C221.9 72.79, 240.72 52.2, 286.64 -0.28 M210.63 95.45 C230.35 71.61, 249.51 47.28, 289.9 -1.69 M208.39 94.76 C241.03 58.26, 272.11 21.27, 291.54 -0.14 M213.14 94.69 C233.94 72.36, 250.79 50.23, 295.93 1 M213.79 96.22 C246.94 57.48, 279.75 20.03, 296.61 0.24 M218.71 93.35 C249.96 60.11, 281.88 20.65, 301.43 0.58 M219.32 95.38 C238.56 72.82, 259.88 49.97, 302.95 -0.16 M224.22 97.35 C255.21 63.28, 281.41 27.94, 306.69 -1.51 M224.32 95.21 C244.02 72.52, 264.52 48.75, 306.84 0.12 M230.93 94.66 C258.47 61.95, 286.58 29.47, 313.28 0.09 M229.85 94.66 C253.04 71.12, 274.82 45.45, 312.96 -0.35 M236.39 94.17 C253.44 70.67, 274.29 48.64, 318.42 1.51 M235.86 95.29 C252.37 75.8, 271.25 54.08, 318.1 0.61 M240.76 96.55 C271.76 57.05, 300.61 20.9, 322.83 0.58 M240.88 95.76 C259.51 73.61, 279.97 49.28, 322.29 -0.6 M246.76 97.15 C264.45 74.95, 281.02 52.73, 329.15 -0.34 M245.23 96.44 C266.88 71.32, 288.41 49.29, 328.54 -0.86 M249.33 97.62 C284.11 59.08, 315.32 24.35, 333.77 0.53 M250.01 96.71 C278.42 63.6, 305.4 33.11, 333.99 0.32 M254.79 97.01 C279.98 68.04, 304.99 39.62, 341.23 -0.76 M255.62 95.78 C273.45 73.86, 291.49 53.53, 339.63 -0.72 M260.03 94.92 C285.09 69.73, 305.44 44.9, 344.1 1.05 M262.17 95.47 C290.2 61.93, 317.72 30.42, 345.45 0.84 M266.21 95.12 C287.77 70.27, 309.24 44.75, 348.66 -0.01 M266.55 95.58 C291.87 67.21, 316.96 39.91, 349.52 -0.46 M270.63 96.44 C287.63 75.51, 307.31 55.09, 354.13 -2 M271.62 96.4 C295.53 68.08, 319.2 41.12, 354.42 0.51 M277.1 95.58 C296.07 77, 311.79 55.92, 359.73 0.07 M277.89 95.29 C309.1 58.83, 342.28 20.88, 359.71 0.27 M283.84 94.09 C315.03 59.71, 348.28 19.26, 366.48 1.86 M282.68 95.27 C300.84 75.96, 316.01 55.28, 364.98 0.05 M289.83 97.14 C319.81 60.64, 349.77 27.94, 369.05 0.59 M287.84 95.51 C314.33 66.02, 338.76 36.23, 371.04 0.3 M294.7 96.48 C314.13 71.24, 333.43 50.76, 378.11 1.86 M292.96 95.99 C320.7 64, 347.45 33.8, 375.57 -0.67 M297.08 97.25 C325.14 66.73, 350.7 37.82, 380.22 -1.4 M298.97 95.98 C329.84 60.59, 362.6 24.02, 382.35 -0.18 M302.54 96.91 C321.03 72.44, 341.32 51.21, 388.25 -2.12 M303.44 96.65 C330.84 63.86, 358.26 33.8, 386.95 -0.6 M309.87 96.06 C337.19 62.69, 363.81 32.62, 393.16 -0.17 M310.17 95.6 C329.24 72.45, 349.69 50.54, 391.86 1.2 M315.03 97.36 C333.76 72.11, 355.27 52.88, 398.47 0.49 M314.45 95.48 C335.73 70.2, 359.54 44.58, 398.24 0.43 M321.5 96.39 C344.65 67.66, 365.38 41.38, 404.07 -1.3 M320.69 94.46 C343.23 70.84, 363.24 46.3, 403.08 0.94 M324.14 96.51 C359.27 56.48, 393.06 21.04, 408.64 -1.04 M325.64 94.87 C346.97 72.72, 367.86 48, 408.9 -0.23 M331.59 95.76 C360.02 64.69, 385.15 31.29, 413.5 -1.67 M330.09 95.75 C356.56 65.04, 381.43 37, 412.91 -0.27 M334.14 93.71 C362.21 67.55, 385.07 40.95, 416.97 1.25 M336.03 95.38 C367.74 57.8, 399.64 22.08, 418.74 -0.08 M342.1 94.36 C372.11 60.15, 405.2 20.09, 422.28 -1.5 M340.33 95.86 C373.39 59.06, 404.42 22.97, 423.58 0.38 M345.64 97.01 C372.25 65.92, 398.16 38.47, 427.93 -2.01 M345.96 95.69 C376.94 59.88, 410.03 20.74, 429.9 0.55 M353.26 95.1 C378.36 67.75, 400.84 41.09, 435.58 -0.3 M351.67 94.31 C383.1 59.63, 413.58 24.36, 434.64 -0.11 M355.54 95.14 C378.84 70.31, 401.92 45.81, 440.36 -1.49 M357.14 94.68 C373.47 75.91, 391.1 56.76, 440.88 0.45 M363.64 95.54 C380.03 75.45, 396.82 52.08, 446.86 -0.9 M362.72 95.81 C388.46 64.16, 414.29 33.99, 445.03 -0.6 M369.06 93.52 C386.28 72.22, 410.26 47.49, 451.38 -1.18 M366.59 95.36 C399.7 58.68, 430.71 22.74, 450.51 -0.4 M373.46 96.7 C396.64 69.71, 416.9 45.4, 453.9 -1.43 M371.79 94.94 C401.47 61.59, 431.9 27.91, 454.98 0.2 M379.74 94.26 C408.69 59.73, 439.78 23.31, 460.42 -2.37 M378.7 94.9 C405.07 65.38, 430.11 38.2, 461.97 -0.87 M383.23 96.03 C407.35 68.03, 436.03 36.22, 466.81 0.63 M383.5 95.2 C409.91 65.82, 436.36 34.04, 466.11 -0.25 M389.41 96.15 C418.84 62.14, 445.07 31.61, 472.57 1.09 M389.2 94.64 C417.7 63.29, 446.62 30.68, 472.13 0.07 M393.78 95.93 C417.09 68.56, 440.49 37.1, 475.98 0.54 M392.84 95.5 C411.64 76.59, 428.88 57.34, 477.36 -0.35 M400.23 94.69 C429.53 61.26, 455.59 26.82, 481.23 -0.25 M399.16 96.04 C425.47 66.14, 450.33 36.34, 482.17 0.36 M404.93 96.71 C432.61 62.07, 463.41 26.48, 488.14 -1.79 M403.8 95.14 C427.57 69.58, 450.84 43.73, 487.01 -0.32 M410.68 94.04 C444.05 59.76, 474.81 18.9, 492.09 1.13 M410.98 94.77 C427.65 75.87, 445 56.72, 493.63 -0.67 M414.81 97.4 C442.83 63.49, 468.01 34.44, 498.32 -1.76 M414.71 96.61 C441.96 63.59, 471.61 31.65, 498.71 -0.25 M419.54 95.05 C449.49 66.07, 474.53 33.06, 501.86 -1.3 M420.44 94.61 C443.54 67.64, 467.43 40.82, 503.08 0.74 M423.85 95.69 C456.52 58.47, 491.18 19.71, 509.87 -2.06 M426.26 95.53 C450.78 64.37, 476.9 34.41, 509.42 -0.05 M429.89 95.28 C447.59 75.22, 462.62 56.79, 513.53 0.59 M430.62 95.51 C464.58 58.33, 495.83 20.9, 513.42 -0.5 M434.81 95.98 C459.85 69, 482.42 40.01, 518.44 -0.71 M435.47 94.67 C453.76 73.93, 472.82 51.51, 519.47 0.51 M441.16 96.96 C470.42 60.8, 498.59 31.88, 524.43 1.63 M441.98 95.6 C471.73 58.84, 504.18 24.75, 523.87 -0.33 M448.75 97.34 C465.72 74.28, 484.5 49.02, 532 0.95 M447.71 95.98 C466.07 74.23, 485.53 52.32, 530.51 -0.19 M453.05 95.01 C478.04 69.17, 500.71 39.68, 534.16 -0.68 M452.3 95.12 C479.4 64.43, 506.73 33.07, 536.04 0.47 M457.04 97.54 C477.09 71.33, 498.1 49.73, 538.83 -1.7 M456.67 96.55 C488.07 58.35, 520.39 22.4, 541.57 0.42 M461.61 97.04 C480.18 77.58, 495.32 58.12, 544.68 1.88 M462.71 94.51 C491.68 64.08, 519.75 31.73, 545.85 0.27 M469.38 97.03 C487.44 74.24, 502.97 54.48, 551.53 -0.64 M468.43 94.63 C489.59 70.15, 510.82 45.52, 550.98 -0.98 M475.16 95.34 C502.23 63.92, 529.27 32.49, 556.23 0.2 M473.7 94.35 C499.17 63.5, 527.72 31.9, 555.57 0.61 M477.76 94.95 C497.77 75.91, 515.55 55.53, 563.01 0.88 M479.38 95.62 C508.78 61.75, 537.9 28.98, 562.44 0.49 M485.73 95.65 C507.94 70.27, 531.22 43.86, 567.37 -0.16 M484.41 96.12 C501.24 76.01, 518.36 55.69, 567.82 0.18 M488.5 97.12 C509.7 75.97, 525.46 52.18, 574.48 0.28 M490.25 96.1 C512.16 68.41, 536.37 40.93, 573 -0.17 M495.58 94.13 C521.9 63.66, 552.58 28.47, 578.99 1.08 M495.34 95.21 C521.46 64.4, 550.6 30.58, 577.55 0.81 M498.23 96.07 C530.05 62.48, 560.46 25.55, 582.82 0.42 M500.14 95.78 C531.55 60.77, 560.65 25.62, 582.37 0.98 M505.35 93.9 C525.35 70.97, 549.03 45.83, 590.27 -1.13 M504.33 95.41 C526.56 70.37, 548.81 44.36, 588.09 -0.49 M509.87 94.99 C537.49 67.02, 560.14 38.02, 595.19 -1.42 M510.48 95.53 C530.75 71.46, 551.94 46.99, 593.59 -0.25 M516.63 94 C544.3 61.69, 571.61 31.5, 598.71 -1.16 M515.23 95.94 C545.57 60.14, 576.42 26.45, 599.06 0.44 M520.69 95.77 C538.99 75.26, 558.1 53.74, 605.09 -0.99 M521.03 95.39 C545.84 68.73, 569.34 42.08, 603.09 0.38 M527.32 94.17 C543.91 77.9, 560.78 57, 608.13 1.33 M527.24 96.14 C544.47 73.94, 561.41 52.44, 610.46 -1.09 M530.25 94.99 C554.07 72.96, 573.23 49.08, 614.99 1.88 M531.91 94.54 C559.46 62.35, 587.67 30.32, 615.27 0.52 M535.65 94.83 C558 71.3, 577.12 49.51, 620.64 1.35 M536.9 95.55 C556.84 71.05, 578.37 47.81, 620.64 -0.61 M544.42 95.92 C562.6 72.27, 580.8 50.02, 623.67 0.03 M541.59 95.33 C560.97 75.45, 578.51 55.54, 625.89 -0.04 M548.14 97.08 C576.52 64.69, 600.25 31.52, 632.7 0.6 M548.08 95.82 C569.87 69.59, 589.77 45.87, 630.26 -0.51 M551.39 96.5 C569.6 74.62, 586.34 57.03, 634.23 -0.97 M552.87 95.26 C568.52 75.52, 585.81 55.89, 636.05 0.65 M559.65 94.72 C587.42 64.82, 612.67 32.18, 643.05 -0.53 M558.02 94.79 C582.53 66.23, 606.87 38.84, 642.35 0.02 M565.67 93.38 C585.46 72.36, 605.86 46.73, 646.07 1.1 M562.89 94.99 C590.61 63.43, 617.42 32.92, 646.2 0.71 M569.33 94.23 C601.31 58.22, 633.02 23.92, 652.75 1.04 M569.28 96.45 C586.46 75.83, 603.2 55.77, 652.28 -1.1 M576.06 93.89 C594.77 70.54, 617.63 43.73, 658.92 1.17 M575.15 94.33 C600.41 66.11, 625.29 36.31, 656.12 0.4 M580.65 94.79 C599.53 73, 618.24 53.85, 661.18 -0.93 M579.78 94.93 C602.04 69.26, 622.66 44.92, 661.76 -0.78 M585.69 96.03 C605.22 72.45, 624.09 52.08, 668.8 -1.16 M585.48 94.24 C603.03 74.55, 620.46 52.77, 666.95 0.14 M589.39 96.25 C611.39 71.72, 632.08 44.7, 674.03 -1.99 M590.77 96.53 C617.53 62.11, 646.03 31.08, 672.84 -0.75 M595.35 97.26 C615.66 70.96, 640.17 42.4, 680.06 -1.59 M595.41 95.62 C612.71 76.64, 629.75 55.76, 679.16 0.52 M599.65 95.16 C628.13 67.06, 651.1 37.53, 683.3 1.01 M600.86 95.71 C630.36 62.65, 657.54 31.24, 683.92 0.37 M606.09 95.47 C626.11 67.88, 649.42 42.18, 689.35 0.86 M604.77 96.22 C636.41 59.45, 666.45 25.31, 688.58 0.26 M611.83 96.76 C631.29 73.3, 651.03 49.7, 695.31 -2.11 M612 95.07 C642.25 58.36, 674.69 23.91, 693.74 -0.83 M615.33 97.49 C632.68 74.37, 653.15 52.85, 697.66 -0.14 M615.78 95.25 C640.86 68.99, 664.6 41.39, 700.36 0.26 M622.66 94.95 C647.26 67.22, 674.42 33.7, 706.01 1.92 M621.46 95.38 C653.09 58.85, 684.54 22.73, 704.73 0.11 M627.44 96.08 C649.25 69.18, 671.47 44.75, 710.25 1.77 M627.63 96.3 C651.32 69.14, 675.27 42.38, 711.01 -0.44 M633.16 96.36 C657.35 68.01, 682.25 35.88, 715.67 -1.21 M631.88 95.57 C656.81 68.85, 681.26 40.99, 715.64 0.55 M637.11 94.7 C659.74 71.58, 682.39 48.18, 720.73 1.64 M637.9 96.11 C669.15 58.7, 700.94 21.88, 720.39 -0.62 M644.68 96.28 C671.18 61.21, 697.34 30.12, 724.88 -0.85 M643.24 94.71 C666.66 68.32, 688.45 42.64, 725.57 -0.71 M649.33 95.48 C665.51 76.03, 682.55 53.79, 731 -0.8 M648.46 96.6 C675.93 63.43, 703.61 32.7, 731.69 -0.94 M654.88 94.69 C671.83 74.19, 691.86 52.73, 737.2 -0.42 M652.85 96.04 C680.56 65.66, 706.34 34.26, 736.65 -0.48 M659.44 95.25 C681.03 70.53, 702.91 42.83, 743.28 -1.13 M659.58 94.83 C690.4 58.04, 722.39 22.16, 741.45 0.13 M665.73 96.26 C697.89 58.62, 727.96 17.96, 746.51 -0.66 M665.39 94.94 C679.57 76.99, 696.11 58.73, 747.34 -0.43 M669.04 97.52 C695.13 68.57, 716.66 37.56, 752.1 1.76 M669.82 95.02 C694.85 65.68, 720.59 35.44, 753.55 0.25 M675.51 94.35 C700.99 67.15, 727 38.89, 757 0.38 M674.86 94.97 C703.18 64.45, 731.21 31.37, 758.44 0.94 M678.08 96.5 C703.66 65.88, 729.2 39.55, 764.31 1.67 M680.13 96.54 C699.73 74.94, 717 53.95, 763.21 -0.74 M686.81 95.01 C707.32 68.74, 727.86 43.55, 767.16 -0.66 M686.61 95.83 C712.55 63.9, 740.95 30.85, 769.09 0.3 M688.81 97.08 C707.44 73.5, 727.43 53.99, 775.07 1.08 M689.77 95.92 C715.47 65.68, 740.99 38.25, 775.01 -0.86 M694.55 96.97 C713.4 77.25, 727.28 57.99, 776.5 1.05 M697.33 95.38 C716.51 72.27, 737.32 48.74, 777.49 0.97 M701.79 94.84 C726.74 67.01, 753.33 35.14, 777.28 6.7 M700.36 94.86 C723.8 70.05, 746.01 44.79, 778.3 7.58 M705.93 95.65 C728.19 72.58, 745.48 48.61, 776.28 12.6 M707.06 95.63 C729.23 68.03, 753.85 39.68, 777.58 12.96 M711.9 96.03 C727.53 75.77, 745.37 55.97, 776.69 20.14 M711.87 96.19 C727.03 80, 739.19 64.19, 778.31 20.61 M715.85 95.91 C737.66 73.69, 756.53 51.88, 777.1 24.11 M716.53 95.52 C731.97 78.4, 748.14 60.1, 778.74 25.85 M724.33 93.61 C741.66 74.08, 758.82 50.83, 778.65 31.89 M722.58 95.92 C734.11 81.34, 748.2 65.98, 776.88 32.65 M729.45 97.04 C744.12 76.15, 761.5 55.67, 778.08 39.73 M727.78 95.85 C742.98 78.04, 758.57 61.94, 776.84 37.67 M734.58 95.23 C745.96 83.29, 754.24 71.78, 778.91 43.95 M733.17 95.2 C751.96 74.38, 769.75 54.96, 777.3 45.07 M738.23 97.28 C744.2 86.86, 755.02 76.98, 778.59 52.03 M738.23 95.88 C752.82 79.64, 766.72 62.21, 778.04 51.34 M744.45 95.2 C756.92 81.23, 772.54 64.76, 778.2 54.24 M744.6 96.35 C755.05 83.32, 765.84 70.91, 778.87 56.62 M750.67 94.8 C755.64 87.53, 763.92 77.98, 778.34 62.53 M749.27 96.24 C759.88 83.79, 770.89 70.35, 776.91 63.22 M754.09 94.55 C762.49 88.7, 770.14 76.42, 776.87 70.12 M754.23 94.84 C760.69 87.94, 766.51 80.88, 777.55 68.99 M759.55 96.46 C764.31 88.25, 773.85 81.39, 776.03 74.67 M759.68 95.73 C764.38 90.16, 770.14 83.36, 776.99 74.06 M765.88 96.89 C768.07 91.48, 772.13 86.72, 777.6 81.37 M765.7 95.29 C768.8 91.89, 771.65 87.03, 776.69 81.7 M770.02 94.57 C774.02 93.24, 776.2 89.1, 777.18 86.63 M769.77 95.47 C772.86 92.45, 776.54 88.52, 778.11 86.12" stroke="#4c6ef5" stroke-width="0.5" fill="none"></path><path d="M0.4 0.03 C185.95 2.69, 373.23 3.42, 775.49 -0.17 M0.07 0.28 C155.48 -1.4, 310.84 -2.06, 775.78 0.04 M775.36 0.58 C778.31 32.84, 778.82 64.36, 777.46 92.22 M775.03 0.42 C777.71 30.86, 777.46 62.56, 775.63 93.99 M775.4 93.58 C484.43 96.06, 191.87 95.14, 0.27 94.5 M775.78 93.84 C610.44 91.07, 444.7 90.78, 0.15 93.98 M-0.57 92.8 C1.31 69.66, -0.88 45.92, 0.86 -1.81 M0.49 93.75 C-0.11 67.99, -0.32 41.13, 0.81 0.35" stroke="#364fc7" stroke-width="1" fill="none"></path></g><g transform="translate(78 81.09140028819445) rotate(0 26.5 13)"><text x="0" y="18" font-family="Virgil, Segoe UI Emoji" font-size="20px" fill="#000000" text-anchor="start" style="white-space: pre;" direction="ltr">PaaS</text></g><g stroke-opacity="0.3" fill-opacity="0.3" stroke-linecap="round" transform="translate(151 37.09140028819445) rotate(0 388 50)"><path d="M0 0 C0 0, 0 0, 0 0 M0 0 C0 0, 0 0, 0 0 M0.19 5.82 C1.98 4.63, 4.2 1.88, 4.2 0.24 M0.11 6.49 C1.8 4.17, 3.67 1.56, 4.85 0.03 M-0.2 12.71 C5.31 8.31, 8.88 2.42, 11.82 1.48 M-0.24 11.85 C4.06 7.86, 6.82 4.58, 10.35 0.09 M0.16 18.4 C6.14 11.78, 11.08 3.34, 15.4 -1.33 M-0.94 17.54 C3.46 13.14, 7.75 8.95, 15.51 -0.16 M-0.96 22.9 C5.42 18.38, 11.55 14.39, 22.61 0.26 M-0.41 24.58 C7.18 15.41, 16.55 6.09, 20.38 -1 M-0.55 30.72 C8.59 22.5, 15.45 14.99, 27.92 -0.75 M-0.06 31.25 C7.27 20.11, 16.38 10.75, 26.75 0.59 M0.48 36.72 C13.67 22.81, 25.75 7.65, 32.23 1.87 M-0.28 36.75 C12.2 23, 23.98 9.51, 32.02 0.76 M0.36 41.42 C12.27 27.06, 26.14 11.41, 35.11 -1.07 M-0.1 41.98 C13.15 26.6, 27.49 10.24, 36.27 -0.54 M-0.37 50.17 C12.29 35.64, 25.29 21.89, 41.15 0.63 M-0.64 48.35 C14.79 32.06, 29.06 14.53, 42.01 -1.08 M-1.17 52.7 C17.22 35.37, 36.23 13.52, 47.82 -0.5 M-0.15 55.1 C14.55 38.32, 29.75 21.03, 47.3 0.28 M-1.57 62.06 C9.64 48.45, 22.32 35.18, 51.87 1.19 M-0.78 61.85 C15.7 42.36, 29.92 25.75, 53.5 0.12 M0.47 66.21 C17.31 43.53, 38.54 22.62, 57.19 -0.56 M0.42 67.9 C19.01 45.74, 38.79 22.51, 58.4 1.03 M-0.22 71.13 C20.88 50.75, 43.68 23.42, 65.2 -1.13 M0 73.09 C16.59 55.02, 32.32 36.16, 63.97 0.18 M-0.87 80.01 C19.64 59.28, 39.08 38.68, 70.71 1.93 M0.54 78.57 C23.7 49.65, 49.43 20.49, 69.49 -0.14 M-1.08 84.8 C26.77 52.79, 54.33 21.93, 76.28 -0.3 M-0.28 84.11 C20.54 61.35, 41.28 38.71, 75.27 0.07 M1.05 93.13 C17.65 73.05, 30.99 51.89, 80.14 -1.18 M-0.5 90.69 C18.41 69.87, 38.77 47.64, 79.83 1.06 M-1.3 95.93 C29.59 62, 61.06 25.34, 86.54 0.36 M-0.88 97.81 C21.85 71, 44.86 46.79, 85.57 -0.09 M1.39 100.25 C25.12 70.05, 53.42 43.68, 89.6 -1.34 M1.58 102.01 C28.63 68.43, 57.26 37.32, 90.01 -0.91 M7.52 103.49 C36.37 69.1, 65.66 33.29, 95.73 0.25 M7.45 100.73 C31.67 72.92, 55.64 45.55, 95.4 -1.01 M13.53 102.22 C45.8 60.42, 78.56 20.86, 99.47 -1.31 M11.34 102.89 C35.12 75.98, 57.27 49.08, 99.98 0.54 M16.92 102.27 C47.77 65.25, 78.85 29.17, 105.91 1.45 M18.19 100.63 C36.07 81.26, 52.75 59.42, 105.62 -0.26 M24.09 101.67 C51.59 68.8, 80.06 36.09, 110.49 0.81 M22.54 101.95 C43.57 77.62, 67.18 52.86, 111.03 0.21 M28.1 102.2 C57.3 69.15, 86.73 35.71, 116.81 1.47 M27.48 101.93 C62.58 61.54, 97.67 21.9, 116.78 0.51 M32.53 100.36 C53.63 76.34, 77.29 51.81, 123.69 -0.35 M33.87 101.4 C67.44 63.38, 101.31 24.73, 121.79 -1.01 M37.85 102.15 C73.05 63.82, 108.09 22.79, 128.42 2.27 M38.06 101.42 C70.33 63.21, 102.97 27.39, 127.76 0.55 M45.3 102.01 C65.84 76.07, 88.41 51.22, 132.41 -1.5 M43.01 101.88 C69.69 71.89, 95.33 41.96, 132.24 -0.02 M51.25 101.65 C79.44 67.54, 107.26 35.32, 137.1 -1.27 M50.04 102.05 C72.31 75.5, 95.81 49.26, 137.79 0.51 M55.13 100.99 C82.48 72.08, 112.07 41.28, 142.31 1.34 M53.98 101.16 C80.75 70.67, 106.78 40.81, 143.69 0.4 M61.72 100.95 C92.5 67.44, 120.55 28.87, 150.14 -0.33 M60.87 100.94 C82.97 74.79, 105.34 49.26, 149.12 -0.53 M65.1 102.39 C84.44 82.59, 104.09 60.13, 155.35 0.84 M65.15 102.19 C88.07 76.62, 108.32 51.25, 152.82 -0.35 M70.98 100.96 C95.18 73.12, 121.1 44.46, 157.19 0.63 M71.34 101.35 C98.53 69.01, 127.27 36.37, 158.33 -0.38 M76.58 101.97 C94.17 77.07, 115.1 52.72, 165.82 -1.64 M75.23 101.05 C103.05 71.16, 129.52 40.64, 163.63 -0.72 M81.05 103.29 C100.28 78.24, 122.45 57.47, 170.18 -0.21 M81.57 100.7 C103.07 75.88, 125.95 48.98, 170.35 0.36 M85.26 102.19 C120.66 60.44, 156.81 20.54, 176.32 -0.05 M87.26 101.01 C115.95 65.8, 146.61 30.38, 175.46 -1.01 M90.28 102.24 C116.73 73.52, 139.32 46.83, 179.35 2.05 M93.04 100.57 C115.15 72.47, 139.76 45.81, 180.46 0.22 M97.15 100.18 C119.85 75.67, 140.61 52.52, 185.75 0.34 M96.66 102.46 C129.26 62.76, 161.3 25.79, 185.03 0.63 M101.33 100.78 C136.07 64.39, 168.47 25, 189.28 -1.02 M102.57 100.71 C137.15 60.17, 171.67 21.54, 190.26 0.88 M108.54 99.77 C132.62 74.46, 155.59 45.16, 197.33 -1.06 M107.15 100.97 C132.01 72.63, 157.34 46.19, 196.35 0.23 M113.16 102.6 C140.42 68.34, 168.71 39.18, 202.83 0.86 M114.33 100.99 C137.66 73.85, 162.09 46.22, 201.73 -0.82 M118.08 103.47 C144.97 73.17, 171.01 41.43, 206.6 -0.12 M118.84 101.25 C143.09 70.08, 169.35 39.8, 206.82 -0.04 M125.07 100.05 C151.3 69.68, 178.37 41.49, 213.21 0.62 M123.83 101.47 C154.92 65.82, 185.79 29.82, 211.16 -0.86 M130.7 100.49 C157.07 72.61, 180.19 41.04, 217.39 -0.06 M128.13 101.19 C162.37 64.33, 196.71 25.36, 217.16 0.15 M135.99 102.93 C168.34 62.18, 205.67 23.97, 223.9 1.91 M133.25 101.1 C159.82 69.87, 188.41 37.9, 223.21 -0.11 M141.64 102.72 C167.03 66.06, 196.31 32.51, 229.87 0.61 M139.82 101.82 C170.06 64.13, 202.64 26.76, 227.44 -0.73 M143.14 103.47 C169.33 74.06, 189.94 49.06, 232.72 -0.93 M144.11 102.74 C165.11 76.62, 186.36 52.6, 232.86 -0.23 M148.48 100.73 C171.54 76.68, 193.42 51.45, 239.85 0.82 M151.01 101.31 C170.63 79.25, 189.76 54.29, 238.42 0.74 M154.07 100.83 C176.1 77.79, 197.31 52.15, 243.8 1.09 M155.28 101.65 C177.69 76.2, 199.29 52.08, 243.45 0.23 M159.09 99.78 C197.11 62.87, 233.13 19.86, 249.42 1.91 M161.17 101.03 C184.83 74, 208.32 47.11, 248.17 -0.18 M165.34 102.14 C191.59 74.29, 212.5 44.53, 255.58 -0.31 M165.66 102.51 C186.46 77.16, 207.33 52.98, 254.66 -0.1 M171.65 99.84 C197.58 71.74, 221.58 42.76, 259.03 0.18 M172.1 101.46 C196.13 72.03, 221.03 44.55, 260.13 0.24 M177.77 103.17 C207.01 66.01, 237.48 33.55, 264.8 1.25 M177.46 102.15 C209.58 64.43, 243.95 25.38, 264.52 0.57 M182.68 99.54 C209.41 66.28, 239.91 36.29, 270.07 -0.13 M181.95 102.26 C216.02 60.57, 249.58 22.3, 269.75 1.11 M188.53 100.43 C212.03 73.77, 236.06 43.81, 274.54 -1.14 M186.25 101.54 C221 63.56, 255.35 24.11, 275.38 -0.84 M190.97 100.21 C218.6 70.47, 242.27 42.9, 280.28 1.89 M193.2 102.26 C211.4 78.1, 229.49 57.31, 279.81 -0.32 M199.08 103.07 C225.97 71.19, 254.13 34.41, 286.16 0.27 M196.96 101.84 C217.91 78.26, 239.1 53.2, 285.96 -0.22 M201.67 101.86 C226.77 73.57, 249.83 46.52, 291.67 -0.13 M202.7 101.41 C231.67 68.52, 260.28 34.32, 290.46 -0.62 M207.21 100.96 C242.93 63.07, 278.01 22.94, 295.35 -0.06 M207.83 102.34 C238.22 68.26, 267.28 33.36, 297.32 -0.32 M214.2 103.19 C241.92 71.37, 270.36 38.24, 302.61 0.08 M213.63 100.84 C246.43 63.19, 278.95 24, 301.16 -0.2 M219.02 100.65 C253.19 63.79, 287.24 27.01, 308.12 -0.99 M218.47 102.5 C242.43 74.87, 264.1 47.8, 306.85 -0.73 M226.32 101.6 C258.4 64.96, 290.24 27.07, 311.73 1.52 M225.5 100.84 C255.1 65.32, 285.02 29.92, 312.73 0.66 M228.9 101.36 C253.18 74.99, 272.53 50.03, 316.78 1.3 M229.82 101.91 C251.54 76.59, 271.77 55.18, 318.29 0.09 M234.09 101.16 C266.95 65.93, 296.45 33.18, 322.02 -0.14 M236.19 100.83 C265.23 66.46, 295.32 33.32, 323.35 -0.15 M239.59 103.02 C257.37 78.65, 277.41 57.85, 327.96 1.34 M240.18 102.36 C264.13 72.84, 286.8 46.87, 329.73 -1.11 M247.23 101.38 C267.85 75.48, 295.48 46.54, 332.75 -0.55 M245.24 102.18 C278.52 63.88, 310.67 26.42, 334.51 -0.57 M250.11 102.23 C276.64 72.41, 301.16 42.87, 338.59 0.31 M251.17 101.76 C272.65 77.94, 292.17 52.95, 339.6 -0.48 M255.74 102.22 C286.8 70.13, 316.6 33.45, 343.53 1.34 M256.53 101.12 C286.51 66.6, 318.58 29.52, 345.06 -0.4 M259.8 100.3 C288.09 68.56, 316.36 35.22, 351.27 -1.13 M261.76 102.19 C295.93 64.06, 328.88 26.26, 350.02 -0.22 M265.97 100.57 C287.03 79.29, 304.01 57.75, 354.25 -0.73 M266.3 101.32 C297.69 64.73, 327.4 30.53, 355.21 0.71 M272.33 103.2 C293.86 76.54, 314.42 55.95, 360.87 2.09 M272.29 101.88 C305.86 62.22, 338.92 24.17, 359.41 0.35 M275.23 103.26 C311.54 65.43, 340.46 27.78, 365.14 -0.35 M277.79 102.83 C303.51 71.38, 331.74 40.16, 366.48 -0.72 M283.67 101.6 C312.68 65.87, 342.9 32.87, 370.61 -0.02 M282.41 101.23 C312.42 67.53, 341.5 33.63, 370.58 -0.68 M287.15 103.79 C318.7 67.57, 349.46 30.65, 376.73 1.6 M288.57 100.87 C313.63 70.78, 341.69 39.49, 375.77 -0.01 M294.09 102.87 C313.42 80.27, 330.36 59.27, 382.69 0.49 M293.13 100.78 C323.17 65.5, 353.91 31.24, 381.32 1.19 M299.66 102.37 C322.38 72.93, 347.32 45.22, 385.86 0.9 M298.6 101.83 C326.24 69.13, 355.38 35.14, 387.3 -0.33 M304.19 103.06 C327.43 74.86, 347.22 53.41, 393.61 -1.73 M304.8 101.24 C333.37 66.43, 363.97 32.01, 391.8 -0.37 M309.01 101.89 C346.62 62.95, 378.43 20.85, 397.7 -1.95 M308.12 101.23 C334.1 71.67, 359.02 42.38, 398.64 -0.71 M314.87 102.88 C339.45 74.95, 361.56 46.99, 402.17 -1.36 M315.12 101.47 C335.71 74.93, 357.27 50.68, 402.51 -0.56 M317.78 99.94 C344.51 73.5, 371.26 47.19, 409.7 -1.79 M319.77 101.76 C338.19 81.2, 356.32 59.27, 408.7 0.01 M323.37 99.77 C356.06 65.94, 389.9 26.05, 413.5 1.62 M325.13 100.48 C345.83 77.69, 366.33 55.31, 412.27 0.6 M330.83 100.76 C350.4 76.25, 370.61 52.83, 419.66 -0.75 M330.51 101.26 C349.7 77.67, 370.39 54.24, 419.73 -0.89 M335.21 99.83 C354.78 79.18, 377.55 57.59, 423.05 1.91 M335.2 101.45 C359.14 74.46, 382.21 48.59, 424.26 0.23 M339.35 103.32 C369.32 69.38, 394.4 37.96, 429.67 -0.3 M341.63 100.74 C374.36 62.75, 410.46 21, 429.35 0.05 M348.23 101.86 C381.65 63.17, 413.7 23.37, 432.55 0.9 M347.06 101.7 C374.48 67.03, 403.78 34.75, 434.02 0.61 M352.84 101.26 C376.88 75.46, 401.64 44.19, 442.13 -1.2 M350.78 102.36 C375.04 72.12, 398.96 45.68, 440.5 0.44 M355.93 102.1 C374.91 81.91, 395.41 56.36, 446.09 -1.34 M357.13 101.48 C375.87 78.35, 396.04 56.59, 445.4 -0.83 M363.13 102.89 C386.47 74.89, 408.69 46.94, 451.77 0.48 M361.96 101.41 C393.67 63.78, 425.5 26.38, 451.45 0.05 M366.11 103.2 C396.12 66.68, 425.23 34.38, 454.02 1.96 M367.13 102.91 C399.2 63.6, 432.63 26.33, 456.62 0.52 M372.33 103.25 C397.79 70.69, 426.48 40.91, 461.61 1.34 M373.51 102.39 C395.87 75.83, 418.04 50.44, 461.86 -1.2 M376.88 102.79 C411.22 64.98, 443.41 26.88, 465.05 0.26 M378.17 102.55 C413.5 61.03, 448.54 19.34, 466.24 0.41 M384.88 100.02 C416.68 66.16, 447.94 26.02, 470.35 -0.58 M384.09 100.9 C404.41 75.89, 427.91 49.01, 472.03 -0.48 M387.33 102.41 C420.35 63.32, 456.62 24.35, 478.17 1.69 M389.34 102.35 C421.12 66.16, 453.68 29.2, 477.14 -0.27 M395.53 101.6 C428.07 61.92, 466.05 23.44, 482.96 -0.78 M394.74 101.73 C411.8 80.12, 430.8 59.48, 481.59 0.94 M400.89 100.28 C428.06 68.82, 455.28 36.75, 486.69 1.07 M399.09 102.42 C427.75 71.06, 455.67 37.43, 488.57 0.56 M405.35 103.06 C424.58 77.01, 445.07 54.04, 490.74 0.14 M404.83 100.82 C427.8 75.49, 449.99 47.65, 493.56 0.2 M409.26 103.34 C432.81 73.31, 458.49 44.87, 498.25 -0.06 M409.21 101.03 C442.48 66.1, 471.96 31.26, 498.11 0.12 M413.71 102.17 C438.23 75.64, 461.85 47.62, 501.99 1.55 M416.05 101.27 C439.36 75.08, 462.11 46.99, 502.95 -0.14 M420.47 103.19 C445.56 71.42, 469.16 43.2, 510.77 -1.53 M420.84 102.59 C452.09 64.36, 484.3 28.4, 509.71 0.77 M426.31 99.39 C460.24 62.45, 493.49 19.49, 513.29 -0.5 M426.47 101.32 C445.59 79.03, 465.13 57.32, 514.1 0.6 M430.88 100.12 C459.47 73.11, 485.46 40.05, 520.51 -0.42 M430.43 101.7 C452.71 77.2, 474.22 52.29, 519.62 0.05 M435.13 101.85 C462.63 72.37, 488.57 40.12, 525.55 -1.28 M436.48 100.39 C471.35 60.6, 505.5 20.67, 524.71 -0.69 M441.14 103.12 C460.16 81.4, 477.34 59.64, 530.04 0.83 M441.83 101.08 C469.3 68.03, 499.86 33.03, 530.46 0.65 M446.5 99.38 C480.14 63.41, 508.9 26.79, 536 0.62 M446.83 101.02 C465.76 79.23, 483.17 57.7, 535.81 0.98 M452.22 101.87 C474.95 75.17, 500.9 47.81, 540.23 -1.52 M452.18 101.62 C485.11 63.44, 518.91 24.46, 541.21 0.41 M457.05 100.49 C485.16 74.06, 509.48 42.58, 546.16 -0.67 M458.6 100.95 C493.61 61.1, 528.45 21.74, 545.8 0.8 M461.4 102.71 C480.15 79.57, 501.2 60.32, 550.26 -0.5 M462.01 102.37 C492.39 68.2, 522.16 33.64, 551.15 0.33 M469.7 100.38 C499.16 66.14, 527.32 29.84, 557.88 1.63 M469.22 101.05 C502.71 64.04, 536.74 24.68, 556.39 0.09 M474.28 100.69 C507.44 61.48, 540.79 23.98, 561.65 1.51 M473.15 102.54 C506.54 63.26, 537.62 26.8, 561.94 0.58 M477.06 101.71 C508.51 64.96, 537.66 31.26, 565.32 -1 M477.81 102.1 C507.41 68.53, 536.12 33.42, 566.66 0.34 M484.76 99.56 C513.84 65.51, 545.78 31.37, 574.2 0.85 M484.8 101.49 C506.9 74.37, 530.25 47.19, 573.57 0.45 M488 103.54 C522.31 62.61, 553.19 25.25, 578.95 -0.37 M489.79 101.79 C515.96 71.38, 543.48 37.5, 577.01 -0.82 M495.06 99.72 C523.47 69.37, 555.33 33.8, 581.38 1.29 M495.51 100.72 C517.53 75.51, 539.31 51.09, 581.71 1.19 M499.74 101.88 C529.23 68.56, 557.38 35.77, 589.54 0.36 M498.97 101.21 C527.87 70.12, 557.25 37.9, 589.21 0.42 M503.72 102.29 C524.03 78.47, 542.56 56.63, 592.94 -0.98 M505.15 101.92 C532.47 68.61, 561.22 36.02, 592.37 0.89 M508.47 102.69 C543.99 63.38, 575.15 26.11, 600.2 -1.26 M510.16 101.87 C531.57 75.98, 554.02 51.22, 598.36 0.01 M517.58 101.06 C539.88 77.79, 560.77 51.66, 602.98 -0.82 M516.95 100.91 C545.22 68.9, 576.12 34.98, 603.9 1.11 M520.69 102.61 C542.26 76.39, 565.14 49.76, 610.33 1.01 M520.5 102.41 C549.51 68.26, 579.43 34.93, 608.91 0.05 M527.8 102.52 C560.56 65.29, 590.54 26.34, 616.57 0.85 M527.48 101.68 C554.29 67.99, 583.35 34.36, 613.68 -0.23 M533.21 100.96 C553.24 79.71, 572.82 54.54, 619.65 -1.92 M531.48 102.66 C557.18 73.19, 582.18 45.82, 620.63 0.82 M537.84 101.84 C566.3 66.43, 594.56 34.42, 625.07 1.79 M536.66 100.37 C569.67 63.08, 602.05 25.55, 625.41 -0.02 M541.16 99.77 C570.75 69.81, 594.76 37.7, 632.19 1.57 M542.94 101.58 C573.74 64.92, 605.35 29.05, 630.67 0.74 M547.5 102.88 C576.61 68.27, 603 33.29, 634.18 -1.54 M547.73 101.27 C579.07 66.66, 609.93 30.84, 635.15 -0.03 M553.98 99.73 C569.17 81.7, 586.58 60.09, 640.3 -0.23 M553.06 101.29 C581.5 68.77, 611.26 35.28, 641.49 0.39 M556.86 102.17 C591.64 61.86, 626.09 27.09, 647.89 2 M559.31 100.84 C589.17 63.53, 621.56 26.07, 647.3 -0.83 M563.42 100.23 C600.21 62.63, 632.26 21.98, 652.64 1.67 M564.37 101.09 C586.64 72.12, 613.08 44.1, 652.93 0.49 M570.33 100.96 C600.08 68.55, 630.06 33, 656.53 -1.77 M569.34 101.69 C598.48 68.31, 626.18 36.55, 656.6 0.12 M575.54 103.35 C597.21 74.58, 625.04 44.94, 662.17 0.93 M573.72 101.4 C591.99 82.28, 610.1 60.63, 662.13 -0.05 M580.63 101.17 C606.4 69.2, 631.53 38.01, 668.71 -0.33 M579.1 100.59 C610.41 64.7, 641.87 29.8, 668.12 0.56 M586.71 101.86 C618.22 63.89, 653.32 21.3, 674.18 -0.09 M584.33 101.83 C602.5 81.74, 621.02 60.37, 673.62 -0.2 M588.14 102.15 C609.21 83.08, 624.8 58.13, 679.38 1.52 M590.57 101.2 C608.08 79.48, 625.78 58.23, 679.32 -0.65 M595.64 103.2 C630.81 60.15, 664.36 20.87, 682.25 -2.33 M595.75 101.11 C623.74 68.9, 652.66 36.32, 683.24 -0.74 M599.51 101.7 C618.37 81.93, 637.65 60.59, 689.78 1.68 M601.05 101.11 C622.37 75.31, 643.51 51.22, 689.94 0.53 M607.31 101.52 C632.22 70.35, 658.73 38.78, 696.31 -2.08 M605.89 101.17 C631.99 71.36, 658.39 40.69, 694.18 -0.32 M611.75 100.56 C636.79 72.98, 662.82 42.33, 699.48 0.71 M611.18 102.3 C633.05 75.93, 653.58 51.02, 700.12 -0.71 M617.05 101.64 C639.67 77.28, 662.69 50.47, 705.91 1.86 M616.98 101.06 C651.05 62.54, 685.5 22.22, 704.34 1.33 M622.82 103.39 C646.48 70.64, 675.24 42.56, 710.36 1.88 M621.65 102.16 C655.19 62.15, 691.32 21.81, 710.31 -0.03 M626.47 103.08 C657.13 67.6, 681.9 35.37, 714.9 1.07 M627.6 101 C660.52 64.07, 691.93 27.37, 714.89 0.38 M631.01 103.55 C659.25 70.09, 686.45 39.38, 722.6 -0.86 M632.45 102.24 C658.1 72.46, 685.59 42.04, 721.32 0.07 M639.52 100.04 C664.86 71.8, 692.42 42.28, 725.46 2.11 M638.69 102.36 C667.23 68.34, 695.06 35.05, 726.42 -0.59 M642.92 103.09 C675.07 64.86, 709.17 23.78, 730.71 1.14 M642.93 102.24 C677.33 62.37, 712.72 23.06, 732.29 0.24 M650.44 101.41 C678.86 64.99, 709.64 32.52, 736.75 -0.54 M649.53 101.69 C672.75 72.55, 698.8 44.32, 737.49 0.41 M653.44 100.75 C678.86 73.96, 702.68 47.43, 743.49 -0.8 M653.8 102.03 C680.9 70.77, 707.02 40.49, 742.72 0.31 M659.8 102.77 C685.96 67.25, 714.44 37.28, 748.25 0.3 M659.72 100.66 C688.82 67.5, 718.36 33.12, 748.02 -0.5 M665.8 99.93 C696.66 63.03, 729.59 30, 752.08 -0.66 M665.08 101.62 C691.48 70.64, 716.98 42.35, 752.44 -0.77 M670.48 102.37 C690.92 77.47, 711.45 50.97, 759.73 0.48 M669.22 102.12 C700.22 65.49, 730 30.68, 757.26 1.01 M675.54 100.76 C696.01 74.95, 716.18 52.45, 761.92 -1.75 M674.17 101.17 C695.53 79.09, 715.86 54.96, 763.64 -0.86 M679.67 101.18 C702.49 75.59, 727.06 49.43, 767.29 0.54 M680.35 102.07 C703.86 76.19, 725.28 50.88, 767.82 -0.63 M686.48 100.03 C715.5 68.67, 747.66 32.75, 772.74 -0.66 M685.78 101.03 C720.45 61.73, 755.65 21.76, 774.82 -0.68 M690.86 102.84 C713.92 74.43, 734.54 50.63, 778.02 3.23 M691.75 101.67 C719.95 68.82, 747.37 34.75, 778.32 0.7 M694.81 103.22 C724.77 69.7, 752.33 38, 780.07 8.21 M695.99 101.67 C722.13 72.27, 746.4 45.49, 778.31 7.75 M701.87 101.66 C715.28 83.43, 732.55 63, 776.78 15.53 M702.41 101.23 C729.48 68.13, 758.09 37.75, 778.19 12.83 M704.97 100.5 C730.01 76.22, 754.31 46.46, 778.23 19.38 M706.22 101.74 C724.16 80.69, 742.42 61.21, 777.28 19.76 M712.17 103.43 C732.8 78.06, 755.1 55.77, 777.77 25.48 M711.01 100.98 C726.76 83.04, 744.93 64.27, 777.24 26.12 M717.76 102.73 C732.68 80.93, 751.07 62.56, 779.17 30.25 M717.21 102.03 C740.93 72.89, 764.67 47.28, 778.53 32.07 M721.5 102.33 C736.66 90.02, 747.09 72.79, 777.69 37.13 M722.54 102.02 C733 88.87, 745.86 76.7, 776.78 38.4 M726.27 101.45 C743.52 81.02, 759.64 63.2, 779.24 43.72 M727.07 101.49 C741.82 85.27, 755.26 69.89, 777.3 43.33 M733.98 101.5 C750.5 83.23, 764.23 65.63, 779.51 48.95 M732.37 100.91 C748.13 84.08, 764.74 65.22, 777.46 51.39 M739.91 100.91 C750.29 88.93, 762.54 71.24, 777.74 56.63 M739.24 101.25 C747.58 91.88, 757.95 80.92, 777.83 56.62 M744.65 102.03 C751.79 92.36, 762.2 81.66, 776.54 62.37 M742.87 102.57 C755.36 87.59, 769.01 73.52, 777.28 63.24 M748.4 102.01 C756.01 92.74, 766.16 82.34, 775.65 69.22 M748.52 100.55 C757.38 91.66, 765.33 82.71, 778.06 68.89 M754.89 103.68 C761.17 94.94, 766.3 87.21, 779.06 74.75 M754.74 101.1 C763.31 91.8, 771.69 80.59, 778.25 75.49 M761.76 102.38 C766.49 95.04, 769.1 89.43, 778.21 82.22 M759.03 100.83 C762.77 97.51, 767.47 92.78, 778.23 80.03 M764.4 100.9 C767.92 95.72, 773 91.59, 777.67 88.14 M765.04 101.74 C768.74 98.66, 772.38 94.05, 777.72 85.86 M770.42 100.77 C772.87 99.95, 773.24 98.43, 778.44 93.16 M770.37 101.53 C772.12 99.27, 773.49 97.64, 777.3 93.2" stroke="#fab005" stroke-width="0.5" fill="none"></path><path d="M0.21 0.74 C166.1 -1.59, 332.1 -2.84, 776.54 -0.56 M-0.23 0.11 C306.36 2.59, 612.94 3.26, 775.85 -0.36 M775.88 -0.3 C778.1 21.98, 778.71 46.06, 774.35 99.41 M775.21 -0.19 C776.76 36.23, 777.42 74.62, 775.61 99.93 M776.78 100 C529.26 100.59, 283.65 100.62, 0.75 100.11 M775.69 100.33 C544.28 101.44, 312.75 101.11, -0.06 100.31 M-1.34 99.18 C0 65.25, -0.6 31.05, -1.82 -1.36 M0.89 99.11 C-0.15 73.14, -0.47 45.82, -0.69 -0.23" stroke="#e67700" stroke-width="1" fill="none"></path></g><g transform="translate(45 294.09140028819445) rotate(0 45.5 26)"><text x="91" y="18" font-family="Virgil, Segoe UI Emoji" font-size="20px" fill="#000000" text-anchor="end" style="white-space: pre;" direction="ltr">Inventory</text><text x="91" y="44" font-family="Virgil, Segoe UI Emoji" font-size="20px" fill="#000000" text-anchor="end" style="white-space: pre;" direction="ltr">Style</text></g><g stroke-opacity="0.5" fill-opacity="0.5" stroke-linecap="round" transform="translate(149 158.09140028819445) rotate(0 388 47.50000000000006)"><path d="M0 0 C0 0, 0 0, 0 0 M0 0 C0 0, 0 0, 0 0 M-0.15 6.39 C0.93 4.49, 2.97 2.62, 4.77 0.65 M0.05 6.55 C1 4.53, 2.58 2.7, 4.83 0.18 M-0.95 11.56 C3.34 10.46, 6.5 5.12, 11.09 0.18 M-0.05 12.1 C3.09 9.1, 6.85 5.45, 11.08 0.39 M-0.73 16.84 C4.38 11.08, 10.02 7.14, 16.2 1.63 M-0.33 19.32 C4.72 12.61, 9.6 7.46, 15.88 1 M-0.03 25.63 C6.6 17.21, 16.76 7.87, 21.53 0.36 M-0.56 24.54 C6.76 17.9, 12.15 10.83, 22.26 0.25 M1.9 30.91 C11.19 19.78, 20.08 5.93, 27.72 -0.28 M0.16 31.4 C7.46 21.53, 15.54 12.69, 26.28 0.5 M-1.92 35.65 C9.38 29.74, 13.84 17.23, 31.86 -1.78 M-0.74 36.16 C11.65 24.22, 22.04 10.26, 32.11 -0.17 M0.47 44.1 C15.71 23.89, 27.08 10.39, 35.18 0.81 M-0.79 42.41 C13.53 27.61, 26.04 12.8, 37.43 0.6 M-1.16 49.16 C14.86 32.62, 26.56 18.73, 41.22 -2.09 M0.18 49.77 C13.91 32.08, 28.58 16.55, 43.22 -0.14 M2.24 56.25 C16.58 34.36, 34.05 15.6, 47.43 0.64 M1.14 55.07 C11.02 41.11, 22.42 28.02, 47.13 -0.18 M-1.32 62.43 C16.1 43.13, 33.19 22.2, 51.32 -0.16 M-0.79 60.78 C14.19 45.56, 28.93 28.89, 53.22 0.27 M0.52 68.28 C19.36 45.82, 39.98 18.79, 58.03 1.27 M-1.19 68.2 C13.37 51.12, 27.66 33.79, 57.34 1.03 M-0.58 73.27 C16.2 52.34, 32.39 35.61, 62.53 0.72 M0.2 72.17 C17.83 53.51, 34.54 33.03, 62.88 0.36 M1.25 79.15 C17.21 60.5, 34.71 39.23, 69.19 -0.91 M0.17 79.72 C15.25 62.23, 29.46 44.57, 68.16 -0.57 M-0.47 85.8 C25.44 56.68, 50.51 30.27, 73.94 1.59 M1.12 85.28 C19.87 61.7, 41.32 36.1, 74.15 0.75 M-0.9 90.39 C29.82 56.58, 61.08 21.32, 79.85 0.79 M0.4 91.13 C25.4 61.65, 50.75 33.2, 79.86 0.58 M2.84 97.71 C34.88 59.37, 66.99 18.58, 83.31 -0.21 M0.77 97.04 C20.37 72.18, 41.01 48.71, 84.11 -0.58 M6.65 95.56 C24.76 73.49, 39.99 53.59, 89.62 -0.65 M7.02 94.99 C28.45 69.81, 50.83 44.81, 90.86 0.38 M10.4 95.19 C33.73 73.14, 50.6 49.51, 95.1 0.98 M12.64 96.91 C41.21 61.19, 71.56 24.65, 95.02 -0.31 M17.97 95.08 C38.16 70.8, 61.07 44.13, 98.78 -1.9 M17.52 95.76 C42.39 67.09, 66.57 37.68, 99.75 -0.93 M20.9 96.61 C53.67 62.03, 82.31 27.44, 104.45 -0.86 M21.33 96.56 C44.89 69.39, 68.46 43.56, 106.29 0.23 M28.53 95.19 C52.49 69.05, 79.07 36.73, 112.32 -1.33 M27.27 96.76 C62.06 59.01, 94.56 21.46, 111.25 -0.76 M31.59 95.36 C50.75 77.2, 67.01 58.5, 116.51 1.29 M33.45 96.72 C54.21 72.09, 74.81 48.84, 115.81 -0.21 M40.39 93.93 C62.74 70.75, 83.76 44.19, 123.92 0.98 M38.68 96.12 C60.87 71.51, 81.54 48.17, 122.27 -0.19 M44.38 95.12 C68.74 65.85, 93.37 38.68, 125.13 0.52 M43.78 96.43 C74.57 58.4, 107.84 22.2, 126.64 0.22 M50.33 97.65 C76.34 64.71, 101.3 34.98, 131.92 -0.7 M49.37 95.31 C77.23 64.24, 103.43 32.09, 131.83 0.06 M53.89 97.89 C78.01 65.03, 104.14 37.52, 136.85 0.5 M53.22 97.09 C71.58 73.74, 90.35 53.43, 136.97 0.97 M61.79 96.99 C82.97 71.61, 102.05 44.26, 143.39 -1.82 M60.07 95.16 C92.21 58.02, 126.35 19.52, 143.16 -0.39 M63.4 95.99 C97.52 61.62, 123.88 26.68, 149.56 0.44 M64.88 96.45 C93.24 64.39, 120.9 32.86, 148.85 0.08 M68.91 94.94 C95.27 67.33, 120 40.55, 154.04 0.5 M70.7 95.83 C100.05 59.16, 131.82 24.36, 153.6 0.4 M76.9 96.05 C108.1 60.93, 137.33 21.53, 159.83 -0.12 M75.96 96.59 C101.24 65.43, 128.29 35.15, 159.46 0.93 M79.87 95.53 C99.65 75.16, 121 50.45, 164.31 -0.55 M79.66 95.58 C105.68 66.05, 130.4 38.47, 164.68 0.76 M87.07 94.99 C115.21 59.05, 145.48 27.12, 170.93 -1.35 M85.88 95.94 C105.25 75.51, 122.51 55.91, 169.14 0.24 M91.48 96.83 C117.3 66.47, 141.92 39.28, 175.3 -1.47 M90.48 95.76 C122.73 61.61, 153.02 26.98, 174.07 -0.67 M95.25 96.08 C114.83 75.66, 130.82 54.18, 180.81 0.93 M96.17 95.27 C120.79 68.07, 145.87 40.06, 179.4 0.09 M101.31 95.53 C131.81 60.3, 160.35 26.45, 184.8 -0.44 M101.89 97.3 C126.46 68.54, 148.84 41.99, 185.59 -0.91 M107.51 96.87 C139.32 61.87, 169.16 25.45, 190.12 -0.82 M106.54 95.7 C131.76 67.95, 155.01 41.13, 190.9 -0.12 M114.23 95.83 C134.98 73.06, 157.22 45.48, 195.3 -1.34 M112.41 95.76 C137.42 67.89, 161.98 37.6, 197.24 -0.61 M118.56 97.24 C148.56 63.41, 176.18 29.06, 202.17 -1.83 M118.86 96.69 C144.76 65.95, 170.39 36, 201.45 0.38 M121.83 98.26 C147.95 69.3, 171.68 39.86, 205.97 -1.74 M123.73 96.01 C138.95 76.7, 157.18 55.88, 207.14 -0.1 M127.83 95.39 C150.66 71.09, 172.72 42.79, 210.98 -0.99 M129.12 96.04 C158.36 61.93, 187.69 27.48, 212 -0.31 M134.37 95.68 C159.91 61.74, 192.68 28.4, 216.67 -0.87 M132.7 96.29 C161.33 64.48, 188.05 34.7, 217.6 0.65 M139.43 95.8 C162.98 72.18, 184.53 43.79, 221.27 -0.9 M139.51 95.9 C159.13 72.55, 179.78 50.02, 222.71 -0.75 M144.8 97.23 C171.54 63.98, 199.94 31.23, 227.94 0.31 M143.32 96.15 C169.06 68.08, 195.52 38.67, 229.08 0 M150.16 97.3 C170.19 70.04, 190.95 46.58, 232.4 0.17 M150.36 96.77 C182.9 58.21, 216.61 22.06, 232.83 -0.15 M156.76 96.4 C187.93 59.03, 217.46 19.43, 236.37 -0.04 M154.74 96.51 C183.14 64.35, 210.65 33.94, 237.53 -0.58 M161.49 97.02 C182.25 74.78, 200.26 51.33, 242.47 0.24 M160.15 95.48 C186.81 67.75, 210.05 39.98, 244.82 -0.38 M164.57 94.95 C186.94 74.77, 204.6 51.04, 249.18 0.23 M165.28 95.64 C193.04 65.49, 218.32 33.96, 249.01 0.45 M171.61 94.38 C199.95 63.3, 227.21 31.93, 256.24 1.65 M171.53 95.21 C195.52 68.26, 217.93 41.49, 254.26 0.05 M177.26 94.99 C197.45 72.49, 220.35 45.27, 260.32 -0.11 M176.4 97.13 C204.69 62.85, 233.5 28.11, 259.81 1.24 M183.36 95.14 C213.67 58.27, 246.41 21.29, 265.15 -0.92 M181.28 95.47 C205.32 69.1, 228.33 42.59, 265.9 -0.06 M186.53 94.93 C206.29 73.93, 223.23 55.54, 269.1 -0.75 M186.74 95.92 C204.18 76.41, 220.4 56.63, 271 -0.45 M191.64 96.11 C222.44 63.94, 253.05 28.54, 275.35 -0.53 M191.71 96.9 C214.8 68.11, 239.62 41.21, 275.66 -0.54 M198.76 97.47 C219.3 68.01, 247.34 40.62, 279.5 0.95 M198.07 96.31 C230.79 59.46, 264.57 19.7, 279.82 -0.55 M201.99 98.18 C229.58 68.22, 253.44 38.24, 287.67 -1.87 M203.24 96.19 C228.81 66.76, 255.78 35.31, 286.6 0.12 M207.03 97.66 C234.3 68.16, 256.77 38.62, 292.18 1.9 M207.33 95.92 C241.12 58.19, 273.11 19.52, 291.65 -0.63 M214.69 94.77 C235.23 74.4, 254.5 51.56, 297.62 -1.36 M212.47 96.66 C231.07 75.33, 249.28 55.99, 296.93 0.77 M219.1 94.84 C241.87 70.19, 260.32 47.35, 300.51 1.38 M218.62 95.74 C236.04 76.95, 250.91 58.22, 302.04 0.08 M223.32 96.89 C245.28 72.63, 264.29 47.65, 307.4 0.91 M222.84 97.19 C247.99 69.19, 270.61 42.68, 308.03 -0.39 M229.44 96.67 C264.64 57.88, 294.82 21.98, 314.53 0.94 M229.18 96.09 C257.1 63.24, 285.09 32.88, 312.7 0.71 M234.2 97.85 C265.69 63.06, 293.87 25.82, 317.9 1.16 M233.92 97.04 C252.73 76.24, 272.47 52.99, 318.43 0.17 M239.17 95.11 C271 61.08, 300.18 25.68, 324.97 0.45 M239.43 96.62 C261.09 72.12, 284.18 47.29, 323.48 0.71 M246.31 97.28 C270 69.52, 296.04 38.52, 328.71 -0.08 M245.44 95.78 C262.79 76.61, 279.39 55.83, 329.82 -0.66 M252.13 94.45 C270.1 73.78, 293.65 47.99, 335.26 -1.89 M250.92 96.34 C280.66 60.13, 311.45 24.12, 334.41 -0.12 M255.31 97.12 C280.32 64.51, 309.41 35.05, 338.07 -1.96 M255.3 95.36 C273.75 76.04, 291.11 54.67, 339.05 -0.66 M262.83 95.29 C289.71 65.69, 315.13 35.46, 345.51 -1.59 M260.38 95.61 C278.15 73.84, 296.74 54.09, 343.66 0.38 M265.57 97.62 C297.92 62.14, 329.68 24.11, 350.3 1.43 M265.55 96.03 C287.92 69.68, 311.74 42.3, 349.45 0.49 M272.47 94.52 C295.04 68.85, 319.22 43.01, 356.5 0.18 M271.67 96.12 C291.88 72.32, 312.69 49.81, 355.54 0.69 M278.12 97.33 C309.24 60.02, 341.31 23.16, 358.34 2.04 M276.38 96.41 C298.26 71.58, 317.74 46.77, 359.51 0.21 M280.94 97.38 C300.37 71.15, 322.26 51.57, 365.73 0.52 M281.84 94.9 C302.94 71.16, 324.28 45.27, 366.56 -0.34 M286.72 97.15 C313.01 69.56, 336.15 39.11, 371.86 -1.58 M288.15 95.48 C304.91 74.08, 324.82 53.42, 370.87 -0.5 M294.82 97.39 C317.64 65.35, 345.5 35.41, 375.36 -1.1 M293.07 96.35 C309.13 78.14, 325.4 58.7, 377.35 0.46 M297.76 96.25 C319.05 71.03, 340.9 50.42, 379.88 0.66 M297.39 96.52 C324.86 64.25, 353.6 31.92, 381 -0.03 M302.71 97.15 C326.48 71.6, 348.08 42.87, 388.26 1.05 M302.05 96.94 C330.09 64.53, 358.83 32.57, 386.7 0.61 M310.37 96.14 C331.56 68.99, 355.64 41.9, 390.1 -0.83 M308.77 95.2 C336.73 65.45, 364.79 34.21, 392.53 0.55 M313.89 97.31 C335.09 71.59, 357.79 42.58, 395.96 -0.97 M314.6 96.23 C337.03 71.02, 359.8 44.35, 397.57 -0.02 M320.34 96.63 C345.1 65.91, 369.79 38.39, 400.91 0.67 M319.11 95.49 C336.78 75.8, 355.31 55.57, 403.24 -0.46 M322.34 97.09 C345.17 71, 371.1 42.21, 406.71 -0.76 M323.7 97.39 C353.32 63.59, 382.66 30.48, 409.08 0.78 M328.16 95.84 C348.43 77.22, 361.91 55.76, 413.39 0.19 M329.4 95.74 C348.57 73.84, 365.92 54.21, 414.07 0.57 M333.37 95.28 C358.48 70.82, 383.64 41.49, 417.41 -1.66 M334.18 96.18 C353.01 73.98, 371.48 52.58, 418.48 -0.44 M338.98 94.22 C368.75 60.43, 398 28.54, 423.29 1.07 M340.77 96.63 C357.29 75.37, 373.51 55.67, 423.11 0.62 M347.02 94.98 C372.51 66.22, 398.1 34.77, 429.69 -0.65 M346 95.7 C371.69 66.71, 398.5 35.13, 429.19 -0.77 M350.68 94.51 C370.73 74, 389.82 50.98, 433.08 -1.03 M350.54 95.17 C373.68 68.3, 397.08 42.1, 433.62 0 M357.97 95.58 C388.48 61.2, 416.2 25.78, 441.84 -0.42 M356.29 96.4 C387.06 59.33, 417.2 24.91, 440.81 -0.97 M361.8 97.79 C384.91 71.16, 405.29 46.32, 443.9 1.86 M362.14 96.74 C392.73 61.64, 423.06 27.65, 446 0.38 M367.62 96.81 C392.22 69.27, 418.79 39.52, 448.84 -1.35 M367.33 96.05 C388.19 71.13, 410.67 46.51, 451.06 0.53 M371.56 95.42 C402.69 63.71, 426.82 32.84, 455.56 -1.97 M373.2 95.05 C391.6 73.14, 409.26 52.1, 455.81 0.77 M376.05 94.69 C411.02 61.12, 441.08 24.04, 462.36 -1.5 M376.56 95.8 C409.01 59.17, 442.79 21.61, 461.83 -0.33 M383.91 97.09 C411.75 67.1, 436.12 34.51, 466.59 0.07 M383.48 96.14 C406.09 68.99, 430 41.83, 465.78 -0.48 M390.02 97.59 C407.29 76.1, 426.19 54.7, 470.1 0.14 M388.58 96.12 C412.51 65.42, 438.57 37.69, 470.52 -0.52 M395.43 94.81 C423.48 63.34, 454.84 29.64, 478.18 0.88 M392.89 96.42 C423.29 61.82, 452.71 26.89, 477.77 0.32 M398.98 98.14 C430.45 61.04, 463.07 25.08, 482.43 0.62 M399.13 96.83 C423.96 68.24, 448.59 39.98, 482.64 1.06 M403.42 94.88 C432.89 67.57, 458.61 34.89, 486.23 1.69 M403.52 96.63 C432.74 63.18, 459.2 31.96, 486.82 0.21 M411.07 97.33 C433.71 64.32, 463.71 35.61, 492.41 1.57 M409.12 97.09 C437.81 61.2, 468.64 28.31, 491.89 0.14 M413.88 93.94 C446.68 59.19, 479.03 22.97, 497.32 0.02 M415.6 95.86 C439.84 67.73, 465.63 37.34, 499.12 -0.43 M421.12 96.44 C448.59 60.59, 480.58 28.48, 502.48 2.19 M420.61 95.42 C440.32 72.37, 461.43 49.23, 502.79 0 M424.81 95.68 C445.86 73.75, 467.8 46.97, 508.7 1.73 M424.87 96.28 C443.38 75.45, 460.88 55.43, 508.01 0.13 M430.65 97.05 C448.53 72.83, 469.41 48.26, 515.73 -0.04 M430.83 95.66 C450.6 72.36, 470.06 49.59, 514.02 0.31 M436.89 95.83 C466.17 61.99, 496.57 29.04, 520.33 0.96 M435.19 96.17 C455.52 74.67, 475.37 51.9, 520 -1.04 M439.85 97.07 C466.29 67.38, 494.51 37.84, 523.97 -1.28 M442.14 97 C473.33 60.29, 504.04 23.19, 524.4 1.05 M445.5 94.73 C463.2 78.6, 481.34 57.84, 530.86 0.2 M446.61 96.39 C476.94 58.82, 509.67 21.91, 530.73 0.48 M451.62 94.74 C478.64 65.59, 505.54 33.16, 535.67 0.57 M452.09 95.99 C483.36 59.46, 513.95 24.5, 534.91 0.56 M455.39 98.23 C479.1 71.87, 499.33 45.46, 541.6 -1.78 M455.98 95.4 C482.06 69.06, 506.18 40.87, 541.03 0.43 M463.53 96.57 C486.41 71.85, 508.16 42.51, 544.02 1.96 M463.35 96.51 C491.19 64.18, 518.85 29.94, 546.7 -0.48 M467.96 94.54 C491.94 70.06, 512.19 44.07, 552.57 -1.89 M468.31 96.01 C488.73 71.8, 509.05 49.16, 550.86 -0.07 M471.85 97.42 C500.75 64.87, 530.35 29.85, 554.86 1.64 M473.78 95.78 C495.91 68.44, 519.96 40.89, 557.07 0.95 M477.33 98.15 C503.67 65.46, 533.98 33.36, 562.48 -0.71 M478.8 95.37 C506.8 63.02, 535.48 29.76, 561.34 -0.59 M483.53 96.43 C511.25 63.24, 540.47 29.86, 566.74 0.68 M484.37 96.38 C515.76 61.42, 545.8 26.05, 567.46 0.21 M490.29 97.87 C505.62 73.98, 526.24 54.15, 572.71 1.47 M488.75 96.97 C517.33 62.57, 548.18 27.8, 572.77 -1.33 M496.21 97.09 C521.64 66.22, 548.98 35.21, 578.9 -1.55 M495.28 96.21 C516.34 71.29, 538.5 44.74, 577.5 -0.98 M498.33 96.84 C521.65 73.47, 540.18 49.53, 582.69 1.44 M499.66 96.63 C519 73.38, 540.02 50.06, 581.91 -0.41 M506.22 95.16 C531.56 66.59, 557.6 36.6, 587.26 0.64 M505.82 96.54 C523.62 74.75, 540.04 54.59, 588.93 -0.56 M509.62 96.49 C532.83 69.48, 554.03 46.58, 592.49 2.03 M509.17 96.56 C528.7 75.45, 547.25 54.17, 592.69 1.14 M516.56 94.76 C544.06 64.3, 574.71 28.43, 600.42 -0.76 M516.46 95.97 C546.1 62.18, 576.49 26.2, 599.7 -0.14 M521.01 96.57 C551.42 58.27, 581.16 23.18, 602.9 0.66 M521.07 95.25 C548.8 63.65, 576.07 30.33, 604.18 -0.11 M524.95 96.27 C555.18 65.36, 580.36 34.77, 607.69 0.58 M526.83 96.44 C542.92 75.13, 560.11 56.14, 609.86 -0.99 M530.06 95.14 C554.83 69.51, 573.9 46.93, 614.08 -1.7 M531.33 95.59 C555.24 68.52, 581.05 40.17, 615.3 1 M535.12 97.19 C563.03 63.61, 592.82 32.64, 619.04 1.28 M537.06 95.99 C567.24 59.98, 598.92 23.78, 619.67 0 M542.99 96.59 C565.54 70.15, 587.21 44.08, 624.83 0.23 M542.04 96.78 C575.11 59.36, 607.75 22.29, 626.11 0.99 M547.46 97.03 C569.73 71.08, 592.33 45.74, 629.14 0.27 M546.38 95.74 C565.92 74.82, 585.35 53.52, 631.51 0.24 M550.73 95.59 C578.87 65.75, 606.6 35.95, 636.69 0.05 M553.47 96.38 C584.25 58.92, 616.35 21.94, 635.84 -0.29 M559.07 97.89 C578.68 72.6, 597.15 46.97, 641.36 -1.18 M557.25 96.44 C577.5 73.13, 598.07 48.16, 641.93 -0.49 M564.88 97.15 C580.54 76.45, 598.91 56.51, 645.85 -0.35 M564.06 96.28 C585.91 71.02, 606.97 45.98, 646.85 0.34 M566.4 97.42 C586.47 74.58, 605.01 54.92, 651.74 0.47 M567.91 95.39 C591.05 70.82, 613.29 44.41, 651.64 -0.08 M573.75 96.59 C592.59 74.17, 612.28 52.11, 655.2 1.26 M574.36 96.73 C593.08 71.92, 614.02 48.26, 656.68 -0.56 M580.6 97.6 C606.34 65.64, 634.42 31.52, 661.02 -0.88 M577.77 97.26 C600.89 70.19, 622.72 45.39, 663.48 -0.05 M586.31 95.53 C605.98 74.77, 625.41 49.42, 666.31 -0.58 M585.13 96.31 C616.76 57.31, 651.09 18.92, 668.01 0.87 M587.5 96.72 C617.27 63.58, 647.35 31.02, 674.61 -1.06 M589.39 96.07 C614.83 67, 641.84 37.69, 672.48 0.38 M596.23 93.9 C627.34 58.71, 656.94 23.51, 679.46 0.97 M595.25 95.96 C629.6 59.48, 661.97 20.75, 678.69 -0.13 M599.61 97.36 C620.97 72.01, 640.6 46.64, 682.62 -1.56 M600.49 97.15 C622.09 70.31, 644.26 45.89, 683.81 0.37 M605.88 93.97 C634.26 64.05, 658.17 35.43, 689.6 1.06 M605.77 94.93 C636.51 60.32, 665.9 25.5, 689.73 1.01 M612.12 94.43 C633.49 73.74, 653.42 48.02, 695.85 -1.57 M609.95 97.2 C634.12 69.7, 656.88 43.73, 694.81 -0.59 M614.3 96.29 C634.79 72.6, 655.75 50.61, 698.36 -0.83 M615.89 94.86 C638.39 70.13, 661.31 44.21, 699.27 0.19 M622.94 95.15 C649.6 65.33, 678.07 30.55, 705.13 -1.21 M621.8 96.27 C642 70.92, 662.75 48.02, 704.29 0.09 M625.22 95.73 C647.01 71.81, 665.39 50.16, 710.07 -0.93 M626.98 95.7 C653.79 67.98, 678.81 37.23, 710.63 0.69 M632.63 95.05 C661.44 63.42, 691.35 28.82, 715.93 -0.55 M631.22 95.74 C650.34 74.23, 669.28 53.51, 715.21 1.09 M639.07 97.5 C661.6 65.7, 690.35 33.87, 719.75 0.86 M638.54 95.75 C662.86 67.23, 687.14 41.22, 720.28 -0.91 M644.47 97.99 C673.07 61.87, 701.48 28.48, 724.47 0.92 M642.56 96.32 C672.69 61.7, 702.42 27.49, 726.71 -0.33 M648.95 97.08 C666.64 76.73, 685.58 53.22, 733.09 0.96 M648.26 95.67 C671.23 68.97, 695.06 41.15, 731.84 -0.65 M652.4 96.11 C688.29 55.9, 719.86 20.88, 736.28 1.25 M653.32 96.1 C683.78 59.89, 715.74 23.16, 736.75 0.7 M660 97.05 C689.06 59.44, 722.77 24.9, 742.5 0.07 M657.3 97.2 C676.01 76.99, 692.14 57.37, 742.1 0.75 M665.06 97.88 C692.06 63.06, 721.71 31.35, 745.61 0.84 M664.16 96.48 C688.25 67.02, 713.53 38.34, 747.44 -0.6 M668.01 96.02 C698.33 61.57, 731.7 26.43, 751.04 -0.77 M668.95 96.16 C698.49 61.11, 729 25.99, 753 -0.08 M673.79 96.1 C699.51 64.58, 724.36 38.26, 759.36 -1.65 M674.89 96.23 C699.91 66.48, 725.47 38.17, 757.04 -0.68 M679.51 97.18 C701.2 71.09, 721.11 47.34, 764.47 -0.21 M678.72 96.99 C706.11 64.92, 733.72 33.19, 763.63 -1.16 M684.59 95.84 C713.32 61.89, 748.04 24.68, 769.16 -1.19 M684.48 95.43 C708.63 67.21, 734.16 39.74, 767.97 0.36 M690.35 97.3 C709.87 76.4, 724.73 56.58, 775.27 -0.59 M690.88 95.71 C714.04 70.09, 738.19 41.17, 774.23 -1.17 M694.17 94.53 C718.25 70.01, 740.61 42.51, 777.98 3.02 M695.06 95.55 C722.71 66.12, 748.41 34.76, 777.51 2.26 M701.08 95.42 C728.57 62.64, 756.84 32.76, 779.99 7.59 M699.91 96.7 C721.73 71, 745.73 44.03, 777.66 8.11 M705.92 97.87 C733.94 64.89, 759.28 34.89, 778.94 13.67 M705.9 95.36 C730.93 66.77, 756.54 37.74, 778.5 12.68 M712.93 96.93 C735.21 68.9, 758.33 45.07, 778.44 20.36 M710.4 96.65 C726.26 81.22, 738.44 65.44, 778.45 20.4 M717.91 95.91 C738.13 68.78, 763.21 41.68, 778.88 24.13 M717.45 95 C735.68 74.18, 753.48 53.37, 777.04 25.97 M723.82 97.52 C735.48 80.38, 753.37 62.51, 776.38 30.27 M721.12 96.63 C740.36 74.52, 757.31 53.44, 777.56 33.04 M726.91 94.98 C742.09 76.84, 756.69 61.49, 775.52 37.42 M727.3 95.95 C737.11 83.16, 748.58 72.28, 777.51 38.16 M732.35 95.18 C752.02 76.82, 766.83 53.16, 776.35 44.99 M733 96.03 C750.86 75.34, 768.44 55.77, 777.21 43.46 M736.37 97.74 C750.79 82.07, 762.13 68.73, 777.21 48.57 M738.19 95.02 C747.33 82.8, 758.08 71.9, 778.42 51.36 M741.84 94.23 C752.8 83.99, 764.77 72.44, 776.25 55.74 M743.11 96.59 C757.12 80.96, 768.85 65.69, 777.44 55.71 M748.43 95.17 C755.44 89.24, 758.55 82.16, 779.03 61.24 M748.04 96.37 C759.67 82.89, 770.67 71.47, 778.48 62.28 M752.25 97.29 C760.23 90.31, 764.99 79.78, 776 70.8 M754.69 96.4 C760.25 87.32, 768.21 79.97, 776.78 69.92 M759.92 94.55 C764.42 89.92, 768.33 86.74, 777.39 76.59 M759.92 95.53 C766.16 87.31, 773.39 80.26, 777.21 75.23 M764.26 97.31 C767.14 91.01, 770.32 89.14, 776.16 80.51 M765.13 95.89 C768.33 91.47, 773.64 85.45, 776.88 81.31 M769.61 96.3 C771.19 93.98, 774.43 88.65, 777.61 86.32 M769.4 96.22 C771.26 94.26, 774.02 92.01, 778.18 86.79" stroke="#82c91e" stroke-width="0.5" fill="none"></path><path d="M-0.42 -0.74 C252.91 -0.56, 504.87 -0.3, 775.91 0.78 M0.13 -0.12 C195.13 -0.33, 390.59 -0.38, 776.26 0.15 M775.22 1.3 C776.94 25.31, 774.86 52.92, 775.24 93.05 M775.87 -0.78 C774.59 26.53, 774.22 54.86, 775.86 94.56 M775.58 94.64 C587.38 96.29, 399.28 96.12, -0.55 94.34 M776.18 94.66 C604.47 97.52, 432.67 97.6, -0.02 95.32 M-1.39 96.9 C1.88 66.64, -0.44 42.54, -1.39 -1.42 M-0.9 94.4 C-0.02 74.09, -1 53.92, 0.59 -0.99" stroke="#5c940d" stroke-width="1" fill="none"></path></g><g transform="translate(10 190.09140028819445) rotate(0 62 26)"><text x="124" y="18" font-family="Virgil, Segoe UI Emoji" font-size="20px" fill="#000000" text-anchor="end" style="white-space: pre;" direction="ltr">Dev Focused</text><text x="124" y="44" font-family="Virgil, Segoe UI Emoji" font-size="20px" fill="#000000" text-anchor="end" style="white-space: pre;" direction="ltr">Abstraction</text></g><g transform="translate(178.5 504.09140028819445) rotate(0 58.5 26)"><text x="58.5" y="18" font-family="Virgil, Segoe UI Emoji" font-size="20px" fill="#000000" text-anchor="middle" style="white-space: pre;" direction="ltr">Dev Env</text><text x="58.5" y="44" font-family="Virgil, Segoe UI Emoji" font-size="20px" fill="#000000" text-anchor="middle" style="white-space: pre;" direction="ltr">"Inner Loop"</text></g><g transform="translate(366 502.09140028819445) rotate(0 114 26)"><text x="114" y="18" font-family="Virgil, Segoe UI Emoji" font-size="20px" fill="#000000" text-anchor="middle" style="white-space: pre;" direction="ltr">Preview Envs</text><text x="114" y="44" font-family="Virgil, Segoe UI Emoji" font-size="20px" fill="#000000" text-anchor="middle" style="white-space: pre;" direction="ltr">Env Config Management</text></g><g transform="translate(665 504.09140028819445) rotate(0 51 26)"><text x="51" y="18" font-family="Virgil, Segoe UI Emoji" font-size="20px" fill="#000000" text-anchor="middle" style="white-space: pre;" direction="ltr">Production</text><text x="51" y="44" font-family="Virgil, Segoe UI Emoji" font-size="20px" fill="#000000" text-anchor="middle" style="white-space: pre;" direction="ltr"></text></g><g transform="translate(821 500.09140028819445) rotate(0 47 26)"><text x="47" y="18" font-family="Virgil, Segoe UI Emoji" font-size="20px" fill="#000000" text-anchor="middle" style="white-space: pre;" direction="ltr">Day-2</text><text x="47" y="44" font-family="Virgil, Segoe UI Emoji" font-size="20px" fill="#000000" text-anchor="middle" style="white-space: pre;" direction="ltr">Operation</text></g></svg>